<svg version="1.1" id="Layer_1" xmlns="http://www.w3.org/2000/svg" xmlns:xlink="http://www.w3.org/1999/xlink" x="0px" y="0px"
	 width="100%" viewBox="0 0 612 612" enable-background="new 0 0 612 612" xml:space="preserve">
<path fill="#F7B733" opacity="1.000000" stroke="none" 
	d="
M348.000000,613.000000 
	C232.000015,613.000000 116.500038,613.000000 1.000046,613.000000 
	C1.000031,409.000061 1.000031,205.000107 1.000015,1.000129 
	C204.999893,1.000086 408.999786,1.000086 612.999756,1.000043 
	C612.999878,204.999878 612.999878,408.999756 612.999939,612.999817 
	C524.833313,613.000000 436.666656,613.000000 348.000000,613.000000 
M184.150360,106.007858 
	C177.066467,105.982536 169.979828,105.845009 162.900742,106.017387 
	C161.298645,106.056396 159.722763,107.172493 157.291962,107.971481 
	C152.005722,108.111015 154.045059,112.193108 154.043259,114.644005 
	C153.950089,241.117462 153.961273,367.591003 153.961365,494.064545 
	C153.961365,505.545013 153.961365,505.544830 165.534668,506.093140 
	C165.700363,506.100983 165.864670,506.138336 166.049118,507.062134 
	C166.056427,508.719269 166.261551,510.404083 166.034134,512.028320 
	C165.337128,517.006165 167.651306,518.274780 172.277618,518.117798 
	C180.885376,517.825867 189.511383,517.944336 198.127304,518.066528 
	C203.734222,518.145996 209.336792,518.533997 215.082382,519.739136 
	C215.084274,526.839905 215.086166,533.940735 215.113815,541.637329 
	C216.929245,542.774902 218.744690,543.912476 220.498566,545.011475 
	C226.313431,541.646667 232.273651,538.197693 238.910721,534.907349 
	C242.894760,537.408997 246.878799,539.910583 251.126846,543.035522 
	C252.305557,543.708923 253.484283,544.382385 255.913513,545.770264 
	C255.913513,538.206360 255.912704,531.950562 255.913696,525.694824 
	C255.914917,518.041870 255.915573,518.035767 263.502502,518.035583 
	C327.473816,518.034058 391.445099,518.044800 455.416412,518.025452 
	C466.349701,518.022156 472.051270,512.556885 472.052826,501.997314 
	C472.070618,380.052032 472.064697,258.106720 472.046082,136.161423 
	C472.044769,127.615417 468.282288,122.907051 459.869049,120.181129 
	C458.151703,113.391594 453.397186,109.791321 447.319122,107.508568 
	C446.026855,107.008530 444.734955,106.071754 443.442291,106.070778 
	C357.295105,106.005737 271.147858,106.016136 184.150360,106.007858 
z"/>
<path fill="#CD6256" opacity="1.000000" stroke="none" 
	d="
M446.995087,107.921150 
	C453.397186,109.791321 458.151703,113.391594 459.935486,121.005905 
	C460.004791,242.311813 460.009033,362.792969 460.001221,483.274109 
	C460.001038,485.770111 460.092224,488.298553 459.746918,490.756500 
	C458.297943,501.071381 452.682831,505.963196 442.307678,505.968292 
	C380.817261,505.998444 319.326843,505.997925 257.836426,506.013184 
	C255.861191,506.013672 253.885941,506.073029 251.451263,506.057068 
	C239.225922,505.830566 227.460022,505.651947 215.287079,505.470520 
	C204.895889,505.610443 194.911789,505.753204 184.942276,505.437469 
	C184.962280,372.736298 184.967697,240.493622 185.435760,108.187927 
	C188.226990,108.095947 190.555542,108.041794 192.884109,108.041672 
	C273.242004,108.037292 353.599884,108.039474 433.957764,108.030769 
	C436.284485,108.030518 438.611176,107.922806 441.369263,107.906723 
	C443.532135,107.939217 445.263611,107.930183 446.995087,107.921150 
M199.205658,249.399185 
	C198.803757,251.086578 198.079361,252.769257 198.054581,254.462158 
	C197.933670,262.722839 197.813873,270.992065 198.072723,279.246399 
	C198.215805,283.808899 199.104126,288.348083 199.886978,293.735107 
	C199.940826,294.019562 199.994659,294.303986 199.946884,295.444000 
	C199.946884,300.183472 199.946884,304.922974 199.946884,310.853638 
	C234.755676,289.837433 268.557281,269.429321 302.523529,248.921860 
	C304.246246,254.988434 302.815613,258.547180 297.511902,261.636566 
	C276.646332,273.790802 256.077820,286.455353 235.409897,298.948395 
	C229.374649,302.596466 223.375305,306.303925 217.359497,309.984161 
	C217.462433,310.270569 217.565369,310.557007 217.668289,310.843414 
	C220.741623,310.843414 223.814941,310.843414 227.837936,310.916382 
	C252.918594,310.915192 277.999268,310.914001 303.931580,311.009186 
	C305.379272,311.009186 306.826935,311.009186 308.361267,311.009186 
	C308.361267,288.111694 308.361267,265.756836 308.361267,243.395126 
	C272.041687,243.395126 236.167938,243.395126 199.890686,243.395126 
	C199.996994,245.430786 200.081909,247.056824 200.105667,248.941772 
	C200.105667,248.941772 199.904785,249.116226 199.205658,249.399185 
M199.354294,166.645462 
	C198.580078,168.624054 197.177368,170.589706 197.136276,172.583405 
	C196.912994,183.411652 196.931900,194.248642 197.143311,205.077240 
	C197.169327,206.409470 198.841690,207.709549 199.948898,209.671783 
	C199.993118,209.893021 200.037323,210.114243 199.949966,211.165726 
	C199.949966,212.605377 199.949966,214.045029 199.949966,215.465088 
	C236.498886,215.465088 272.481537,215.465088 308.418640,215.465088 
	C308.418640,192.746750 308.418640,170.530701 308.418640,147.893570 
	C306.392548,147.994324 304.767914,148.075119 302.196045,148.014877 
	C277.257690,148.032562 252.319351,148.050247 226.723480,148.107819 
	C218.399017,148.107819 210.074570,148.107819 201.750107,148.107819 
	C201.709122,148.423813 201.668121,148.739807 201.627136,149.055801 
	C234.687286,169.060165 267.747437,189.064545 300.807587,209.068909 
	C300.601501,209.759186 300.395416,210.449448 300.189362,211.139709 
	C294.795319,210.236496 288.618256,210.718460 284.143555,208.188965 
	C265.310974,197.543137 246.991791,185.989761 228.474472,174.785431 
	C219.247818,169.202621 209.999130,163.656235 200.137726,157.718445 
	C200.137726,160.467789 200.137726,162.407440 199.982574,165.219543 
	C199.899567,165.503021 199.816559,165.786499 199.354294,166.645462 
M444.679565,247.859085 
	C444.679565,246.421463 444.679565,244.983841 444.679565,243.448181 
	C408.257172,243.448181 372.292419,243.448181 336.280243,243.448181 
	C336.118439,244.519577 335.936737,245.163818 335.936005,245.808273 
	C335.913116,266.261414 335.989807,286.715149 335.837311,307.167236 
	C335.802826,311.792999 338.390228,311.338043 342.251678,310.957520 
	C351.524811,310.986023 360.798157,311.063904 370.071075,311.032013 
	C385.796082,310.977905 401.520844,310.854553 418.149323,310.861908 
	C426.365723,310.861908 434.582123,310.861908 442.798523,310.861908 
	C442.881500,310.558685 442.964508,310.255463 443.047516,309.952271 
	C409.905304,289.903473 376.763123,269.854675 343.620941,249.805878 
	C343.824066,249.155594 344.027161,248.505310 344.230286,247.855026 
	C349.673950,248.717087 355.978546,248.099625 360.419861,250.684158 
	C386.898163,266.092682 412.944366,282.243622 439.143555,298.132263 
	C440.733246,299.096344 442.391144,299.947876 444.600952,301.176178 
	C444.600952,298.343414 444.600952,296.547546 444.729858,293.713531 
	C444.644318,278.693054 444.558777,263.672577 444.679565,247.859085 
M444.750854,209.256180 
	C444.699677,194.224182 444.648499,179.192169 444.711884,163.340240 
	C444.711884,158.492569 444.711884,153.644913 444.711884,147.920105 
	C409.897675,168.937576 376.157532,189.306595 342.194000,209.810486 
	C340.189697,203.543137 341.754089,200.385345 346.665741,197.485809 
	C372.473724,182.250259 398.036316,166.598999 423.674103,151.075516 
	C424.836212,150.371872 425.901062,149.507523 427.011230,148.718018 
	C426.876404,148.328461 426.741577,147.938904 426.606781,147.549347 
	C422.420441,148.055481 418.234070,148.561615 413.191742,148.991379 
	C411.600342,148.638916 410.008942,147.980118 408.417542,147.980133 
	C386.041962,147.980438 363.666412,148.070465 340.395996,147.943558 
	C336.961182,147.409363 335.816742,148.757141 335.843781,152.313126 
	C335.994202,172.096481 335.899719,191.881622 335.921326,211.666122 
	C335.922699,212.937149 336.194855,214.207886 336.347931,215.538864 
	C372.625458,215.538864 408.577606,215.538864 444.874481,215.538864 
	C444.740295,213.460831 444.634735,211.825729 444.750854,209.256180 
M241.764526,388.806885 
	C240.172241,388.926880 238.579941,389.046875 236.724838,389.186707 
	C236.724838,410.307709 236.724060,430.949463 236.725235,451.591248 
	C236.725708,459.822998 236.809738,459.899445 245.125732,459.086243 
	C245.437851,459.055756 245.730713,458.828369 246.710419,458.388123 
	C246.710419,443.537781 246.710419,428.370880 246.710419,413.203979 
	C248.222214,414.451721 248.647064,415.816620 249.019089,417.195801 
	C252.399551,429.726807 255.701004,442.280029 259.230133,454.768951 
	C259.688507,456.391083 261.098877,458.646851 262.430481,458.934937 
	C265.359772,459.568665 268.520660,459.131622 271.561279,459.131622 
	C271.561279,435.251526 271.561279,412.329926 271.561279,389.317474 
	C268.218140,389.317474 265.204926,389.317474 261.861267,389.317474 
	C261.861267,402.035980 261.861267,414.276733 261.861267,426.517487 
	C260.627411,425.145782 260.042389,423.663269 259.631500,422.133942 
	C257.341980,413.612488 255.084015,405.082520 252.836014,396.549988 
	C250.795151,388.803772 250.806870,388.800690 241.764526,388.806885 
M409.826630,436.499939 
	C409.826630,443.919006 409.826630,451.338074 409.826630,458.853027 
	C413.875153,458.853027 417.122803,458.853027 421.067108,458.853027 
	C421.067108,448.845032 421.067108,439.143646 421.067108,429.496582 
	C425.495483,429.496582 429.214294,429.496582 433.437286,429.496582 
	C433.437286,439.496307 433.437286,449.083252 433.437286,458.850159 
	C437.367065,458.850159 440.780243,458.850159 444.498169,458.850159 
	C444.498169,435.503143 444.498169,412.469666 444.498169,389.123291 
	C440.746979,389.123291 437.335205,389.123291 433.207458,389.123291 
	C433.207458,399.051880 433.207458,408.767273 433.207458,418.535980 
	C428.774139,418.535980 425.067261,418.535980 420.835236,418.535980 
	C420.835236,408.555847 420.835236,398.973145 420.835236,389.225891 
	C416.923737,389.225891 413.549377,389.225891 409.826569,389.225891 
	C409.826569,404.914703 409.826569,420.207306 409.826630,436.499939 
M309.205322,419.981598 
	C307.539215,419.975708 305.873047,419.959106 304.206970,419.965729 
	C295.827179,419.999084 295.823761,420.001434 296.360718,428.450104 
	C296.380280,428.757721 296.601532,429.052460 296.728760,429.353210 
	C298.712067,430.290436 300.885529,431.647888 301.136749,433.298004 
	C301.680847,436.871826 301.291382,440.596924 301.189301,444.257507 
	C301.087799,447.895874 299.053528,449.773041 295.494019,449.745300 
	C292.065796,449.718628 290.193604,447.583771 290.167542,444.358154 
	C290.057098,430.695251 290.065277,417.030273 290.188995,403.367462 
	C290.219208,400.029449 292.290527,398.205353 295.703033,398.270691 
	C299.073578,398.335175 300.921753,400.126831 301.175720,403.501587 
	C301.250641,404.497528 301.425140,405.529694 301.256134,406.492981 
	C300.328461,411.780273 302.771606,413.450653 307.664673,412.675476 
	C308.934692,412.474243 310.225922,412.406891 311.749878,412.253723 
	C311.749878,408.476532 312.149719,404.956268 311.672791,401.559052 
	C310.387939,392.406616 304.511566,387.804749 294.954132,387.993286 
	C285.747589,388.174896 279.425781,393.215576 279.174011,401.973175 
	C278.748077,416.789551 278.895508,431.634369 279.264221,446.455688 
	C279.410675,452.343719 282.697418,456.786560 288.456299,458.986816 
	C300.410461,463.553986 311.221893,456.761505 311.847717,444.042969 
	C312.183167,437.225891 312.016602,430.377899 311.861786,423.548767 
	C311.834747,422.357300 310.739380,421.190094 309.205322,419.981598 
M402.307190,450.569794 
	C405.471008,440.344513 403.020386,431.557617 395.507141,424.075287 
	C392.206665,420.788361 388.295166,417.912781 385.768982,414.113800 
	C383.711090,411.018982 382.667542,406.860840 382.468781,403.105713 
	C382.386749,401.555817 385.678101,398.551270 387.454346,398.536682 
	C389.243195,398.521912 391.332245,401.191986 392.745453,403.090790 
	C393.488953,404.089783 393.069214,405.954468 393.193237,407.686401 
	C396.561646,407.686401 399.777679,407.686401 403.084473,407.686401 
	C403.268463,406.760742 403.512482,406.119690 403.497833,405.484589 
	C403.467163,404.157196 403.358459,402.824951 403.179565,401.508606 
	C401.939362,392.381195 396.309021,387.818939 386.565765,388.013885 
	C377.550049,388.194305 371.846375,393.421021 370.983765,402.234253 
	C370.209564,410.144440 372.314148,417.075928 377.956451,422.779144 
	C381.117523,425.974304 384.876801,428.713562 387.450958,432.313019 
	C389.755371,435.535339 391.424866,439.528564 392.218994,443.417603 
	C392.899414,446.749969 390.936920,449.709229 386.890350,449.733032 
	C383.015259,449.755859 381.300507,447.353943 381.110718,443.669739 
	C381.019806,441.904541 380.908630,440.140411 380.801727,438.290833 
	C377.230194,438.290833 374.162811,438.290833 371.161377,438.290833 
	C369.354645,448.673767 372.723297,456.168854 380.223053,458.924408 
	C389.309265,462.262848 397.475952,459.412354 402.307190,450.569794 
M199.922058,419.500000 
	C199.922058,432.580811 199.922058,445.661652 199.922058,459.120209 
	C207.878128,459.120209 215.020233,459.112946 222.162292,459.122070 
	C230.632141,459.132935 230.639816,459.138458 229.957672,450.665771 
	C229.921936,450.221893 229.571579,449.803314 229.160873,448.936340 
	C223.360291,448.936340 217.432541,448.936340 211.287766,448.936340 
	C211.287766,442.056793 211.287766,435.658600 211.287766,428.527222 
	C216.283051,428.527222 220.992508,428.527222 225.866211,428.527222 
	C225.866211,424.862122 225.866211,421.933258 225.866211,418.364105 
	C221.940308,418.364105 218.300507,418.561310 214.702850,418.258148 
	C213.427948,418.150726 211.247040,416.881622 211.199768,416.045624 
	C210.885101,410.480225 211.036621,404.888458 211.036621,398.769470 
	C217.765030,398.769470 223.679047,398.769470 229.798340,398.769470 
	C229.798340,395.291138 229.798340,392.378296 229.798340,389.214905 
	C219.802414,389.214905 210.108582,389.214905 199.922043,389.214905 
	C199.922043,399.242096 199.922043,408.871063 199.922058,419.500000 
M342.398682,459.113495 
	C344.172913,459.113495 345.947174,459.113495 347.879944,459.113495 
	C347.879944,455.441467 347.879944,452.419403 347.879944,448.923157 
	C341.874359,448.923157 336.285461,448.923157 330.157898,448.923157 
	C330.157898,446.669312 330.157898,444.876160 330.157928,443.083038 
	C330.158112,426.435760 330.089386,409.787964 330.218933,393.141693 
	C330.243591,389.970642 329.420776,388.428925 326.046265,388.794189 
	C323.820526,389.035126 321.570465,389.051544 319.313843,389.169403 
	C319.313843,412.691284 319.313843,435.594025 319.313843,459.113739 
	C326.880035,459.113739 334.151550,459.113739 342.398682,459.113495 
M353.098907,413.500000 
	C353.098907,428.584106 353.098907,443.668243 353.098907,458.821716 
	C357.111542,458.821716 360.367706,458.821716 364.277771,458.821716 
	C364.277771,456.586975 364.277771,454.642334 364.277771,452.697723 
	C364.277771,434.378662 364.278656,416.059601 364.277466,397.740540 
	C364.276825,388.207611 364.274628,388.200928 354.717590,388.929657 
	C354.272705,388.963593 353.851349,389.305969 353.098938,389.651825 
	C353.098938,397.233826 353.098938,404.866913 353.098907,413.500000 
z"/>
<path fill="#BA8827" opacity="1.000000" stroke="none" 
	d="
M251.910706,506.104919 
	C253.885941,506.073029 255.861191,506.013672 257.836426,506.013184 
	C319.326843,505.997925 380.817261,505.998444 442.307678,505.968292 
	C452.682831,505.963196 458.297943,501.071381 459.746918,490.756500 
	C460.092224,488.298553 460.001038,485.770111 460.001221,483.274109 
	C460.009033,362.792969 460.004791,242.311813 460.033020,121.350304 
	C468.282288,122.907051 472.044769,127.615417 472.046082,136.161423 
	C472.064697,258.106720 472.070618,380.052032 472.052826,501.997314 
	C472.051270,512.556885 466.349701,518.022156 455.416412,518.025452 
	C391.445099,518.044800 327.473816,518.034058 263.502502,518.035583 
	C255.915573,518.035767 255.914917,518.041870 255.913696,525.694824 
	C255.912704,531.950562 255.913513,538.206360 255.913513,545.770264 
	C253.484283,544.382385 252.305557,543.708923 251.239471,542.344727 
	C251.569672,540.704041 251.974884,539.754272 251.976089,538.804016 
	C251.989777,527.904358 251.942047,517.004639 251.910706,506.104919 
M462.000000,397.500000 
	C462.000000,427.600708 462.000000,457.701416 462.000000,487.802155 
	C462.434631,487.797150 462.869263,487.792145 463.303894,487.787140 
	C463.303894,368.614410 463.303894,249.441666 463.303894,130.268921 
	C462.869263,130.268448 462.434631,130.267990 462.000000,130.267517 
	C462.000000,219.011688 462.000000,307.755829 462.000000,397.500000 
z"/>
<path fill="#225C87" opacity="1.000000" stroke="none" 
	d="
M251.451263,506.057068 
	C251.942047,517.004639 251.989777,527.904358 251.976089,538.804016 
	C251.974884,539.754272 251.569672,540.704041 251.107483,542.033081 
	C246.878799,539.910583 242.894760,537.408997 238.511200,534.486328 
	C235.545532,530.703247 233.003571,530.586304 229.400787,533.076477 
	C224.930374,536.166260 219.885056,538.424255 215.088074,541.041504 
	C215.086166,533.940735 215.084274,526.839905 215.081238,518.827148 
	C215.284775,513.767944 215.489456,509.620636 215.694138,505.473328 
	C227.460022,505.651947 239.225922,505.830566 251.451263,506.057068 
z"/>
<path fill="#6E372E" opacity="1.000000" stroke="none" 
	d="
M166.029617,506.161926 
	C165.864670,506.138336 165.700363,506.100983 165.534668,506.093140 
	C153.961365,505.544830 153.961365,505.545013 153.961365,494.064545 
	C153.961273,367.591003 153.950089,241.117462 154.043259,114.644005 
	C154.045059,112.193108 152.005722,108.111015 157.912094,107.971848 
	C158.922958,108.148117 159.313675,108.324013 159.649658,108.856812 
	C159.394638,110.144028 159.194351,111.074356 158.747406,112.120674 
	C158.017044,112.488594 157.533325,112.740517 156.806885,113.331161 
	C156.377625,115.473015 156.028137,117.276131 156.027771,119.079315 
	C156.002213,245.759933 156.000336,372.440552 156.043854,499.121185 
	C156.044510,501.050079 156.635269,502.978821 157.290955,504.925842 
	C158.085434,504.952881 158.539597,504.961670 159.391418,504.973816 
	C161.759552,505.172424 163.729996,505.367706 165.759949,505.725250 
	C165.819443,505.887512 166.029617,506.161926 166.029617,506.161926 
z"/>
<path fill="#BA8926" opacity="1.000000" stroke="none" 
	d="
M215.287079,505.470520 
	C215.489456,509.620636 215.284775,513.767944 215.010696,518.349487 
	C209.336792,518.533997 203.734222,518.145996 198.127304,518.066528 
	C189.511383,517.944336 180.885376,517.825867 172.277618,518.117798 
	C167.651306,518.274780 165.337128,517.006165 166.034134,512.028320 
	C166.261551,510.404083 166.056427,508.719269 166.039368,506.612030 
	C166.029617,506.161926 165.819443,505.887512 166.144470,505.825928 
	C166.993988,505.781769 167.518448,505.799194 168.267731,505.831238 
	C168.492538,505.845886 168.935455,505.763245 169.391907,505.820679 
	C172.609970,505.826385 175.371597,505.774689 178.538300,505.793579 
	C180.583832,505.816711 182.224289,505.769226 184.125732,505.794373 
	C184.567017,505.876648 184.747345,505.886322 184.927673,505.895966 
	C194.911789,505.753204 204.895889,505.610443 215.287079,505.470520 
z"/>
<path fill="#F4B625" opacity="1.000000" stroke="none" 
	d="
M447.157104,107.714859 
	C445.263611,107.930183 443.532135,107.939217 441.020966,107.703285 
	C437.929810,107.303009 435.618378,107.012878 433.306854,107.011856 
	C350.538300,106.975266 267.769775,106.965691 185.001099,106.719254 
	C185.000961,106.486160 185.000610,106.019974 185.000610,106.019974 
	C271.147858,106.016136 357.295105,106.005737 443.442291,106.070778 
	C444.734955,106.071754 446.026855,107.008530 447.157104,107.714859 
z"/>
<path fill="#B48A2B" opacity="1.000000" stroke="none" 
	d="
M215.100952,541.339417 
	C219.885056,538.424255 224.930374,536.166260 229.400787,533.076477 
	C233.003571,530.586304 235.545532,530.703247 238.172775,534.406982 
	C232.273651,538.197693 226.313431,541.646667 220.498566,545.011475 
	C218.744690,543.912476 216.929245,542.774902 215.100952,541.339417 
z"/>
<path fill="#F4B725" opacity="1.000000" stroke="none" 
	d="
M184.575485,106.013916 
	C185.000610,106.019974 185.000961,106.486160 184.819153,106.840950 
	C184.401535,107.370033 184.193268,107.572639 183.592651,107.845253 
	C181.772339,107.972031 180.371933,108.057114 178.981247,108.044815 
	C178.990952,107.947433 178.991837,107.751663 178.626007,107.571190 
	C172.524490,107.540871 166.788788,107.691017 160.822571,107.946037 
	C160.313034,108.222870 160.034042,108.394829 159.745972,108.547302 
	C159.736908,108.527824 159.704407,108.499916 159.704407,108.499916 
	C159.313675,108.324013 158.922958,108.148117 158.333527,107.882507 
	C159.722763,107.172493 161.298645,106.056396 162.900742,106.017387 
	C169.979828,105.845009 177.066467,105.982536 184.575485,106.013916 
z"/>
<path fill="#F5F4F4" opacity="1.000000" stroke="none" 
	d="
M200.137726,164.347076 
	C200.137726,162.407440 200.137726,160.467789 200.137726,157.718445 
	C209.999130,163.656235 219.247818,169.202621 228.474472,174.785431 
	C246.991791,185.989761 265.310974,197.543137 284.143555,208.188965 
	C288.618256,210.718460 294.795319,210.236496 300.189362,211.139709 
	C300.395416,210.449448 300.601501,209.759186 300.807587,209.068909 
	C267.747437,189.064545 234.687286,169.060165 201.627136,149.055801 
	C201.668121,148.739807 201.709122,148.423813 201.750107,148.107819 
	C210.074570,148.107819 218.399017,148.107819 227.193436,148.374542 
	C228.577835,149.133636 229.492279,149.625992 230.427155,150.132584 
	C230.447571,150.146820 230.465256,150.193115 230.686554,150.474854 
	C254.706314,165.145187 278.504791,179.533798 303.143250,194.430267 
	C303.143250,178.284103 303.143250,163.220001 303.143250,148.155914 
	C304.767914,148.075119 306.392548,147.994324 308.418640,147.893570 
	C308.418640,170.530701 308.418640,192.746750 308.418640,215.465088 
	C272.481537,215.465088 236.498886,215.465088 199.949966,215.465088 
	C199.949966,214.045029 199.949966,212.605377 200.478958,210.743439 
	C225.470596,210.321152 249.933243,210.321152 274.395874,210.321152 
	C274.457062,209.891144 274.518250,209.461151 274.579468,209.031143 
	C249.765549,194.136459 224.951630,179.241760 200.137726,164.347076 
z"/>
<path fill="#F6F5F5" opacity="1.000000" stroke="none" 
	d="
M200.166824,248.682861 
	C200.081909,247.056824 199.996994,245.430786 199.890686,243.395126 
	C236.167938,243.395126 272.041687,243.395126 308.361267,243.395126 
	C308.361267,265.756836 308.361267,288.111694 308.361267,311.009186 
	C306.826935,311.009186 305.379272,311.009186 303.517273,310.499023 
	C303.102936,295.114777 303.102936,280.240723 303.102936,264.383026 
	C277.075348,280.249420 251.981796,295.546417 226.888245,310.843384 
	C223.814941,310.843414 220.741623,310.843414 217.668289,310.843414 
	C217.565369,310.557007 217.462433,310.270569 217.359497,309.984161 
	C223.375305,306.303925 229.374649,302.596466 235.409897,298.948395 
	C256.077820,286.455353 276.646332,273.790802 297.511902,261.636566 
	C302.815613,258.547180 304.246246,254.988434 302.523529,248.921860 
	C268.557281,269.429321 234.755676,289.837433 199.946884,310.853638 
	C199.946884,304.922974 199.946884,300.183472 200.343536,294.883881 
	C225.350388,279.491547 249.960602,264.659363 274.570801,249.827164 
	C274.392548,249.445724 274.214294,249.064301 274.036011,248.682861 
	C249.412964,248.682861 224.789886,248.682861 200.166824,248.682861 
z"/>
<path fill="#F6F5F5" opacity="1.000000" stroke="none" 
	d="
M414.047729,149.067749 
	C418.234070,148.561615 422.420441,148.055481 426.606781,147.549347 
	C426.741577,147.938904 426.876404,148.328461 427.011230,148.718018 
	C425.901062,149.507523 424.836212,150.371872 423.674103,151.075516 
	C398.036316,166.598999 372.473724,182.250259 346.665741,197.485809 
	C341.754089,200.385345 340.189697,203.543137 342.194000,209.810486 
	C376.157532,189.306595 409.897675,168.937576 444.711884,147.920105 
	C444.711884,153.644913 444.711884,158.492569 444.330383,163.898285 
	C419.179565,179.374481 394.410248,194.292618 369.640930,209.210770 
	C369.803009,209.537399 369.965118,209.864014 370.127197,210.190628 
	C394.927856,210.190628 419.728516,210.190628 444.529175,210.190628 
	C444.634735,211.825729 444.740295,213.460831 444.874481,215.538864 
	C408.577606,215.538864 372.625458,215.538864 336.347931,215.538864 
	C336.194855,214.207886 335.922699,212.937149 335.921326,211.666122 
	C335.899719,191.881622 335.994202,172.096481 335.843781,152.313126 
	C335.816742,148.757141 336.961182,147.409363 340.855591,148.498657 
	C341.315155,163.892563 341.315155,178.731384 341.315155,193.938065 
	C342.606232,193.440659 343.095703,193.329819 343.503601,193.083801 
	C366.385071,179.282959 389.266663,165.482117 412.108246,151.615448 
	C412.957336,151.099945 413.410217,149.931763 414.047729,149.067749 
z"/>
<path fill="#F6F6F5" opacity="1.000000" stroke="none" 
	d="
M444.600952,294.751648 
	C444.600952,296.547546 444.600952,298.343414 444.600952,301.176178 
	C442.391144,299.947876 440.733246,299.096344 439.143555,298.132263 
	C412.944366,282.243622 386.898163,266.092682 360.419861,250.684158 
	C355.978546,248.099625 349.673950,248.717087 344.230286,247.855026 
	C344.027161,248.505310 343.824066,249.155594 343.620941,249.805878 
	C376.763123,269.854675 409.905304,289.903473 443.047516,309.952271 
	C442.964508,310.255463 442.881500,310.558685 442.798523,310.861908 
	C434.582123,310.861908 426.365723,310.861908 417.500671,310.537231 
	C391.969513,295.111786 367.087067,280.010986 341.369354,264.403259 
	C341.369354,280.690674 341.369354,295.766632 341.369354,310.842560 
	C338.390228,311.338043 335.802826,311.792999 335.837311,307.167236 
	C335.989807,286.715149 335.913116,266.261414 335.936005,245.808273 
	C335.936737,245.163818 336.118439,244.519577 336.280243,243.448181 
	C372.292419,243.448181 408.257172,243.448181 444.679565,243.448181 
	C444.679565,244.983841 444.679565,246.421463 444.150452,248.230438 
	C419.198334,248.601807 394.775330,248.601807 370.352325,248.601807 
	C370.302094,249.073944 370.251862,249.546066 370.201599,250.018204 
	C395.001373,264.929352 419.801178,279.840515 444.600952,294.751648 
z"/>
<path fill="#FBF9F7" opacity="1.000000" stroke="none" 
	d="
M242.214661,388.804993 
	C250.806870,388.800690 250.795151,388.803772 252.836014,396.549988 
	C255.084015,405.082520 257.341980,413.612488 259.631500,422.133942 
	C260.042389,423.663269 260.627411,425.145782 261.861267,426.517487 
	C261.861267,414.276733 261.861267,402.035980 261.861267,389.317474 
	C265.204926,389.317474 268.218140,389.317474 271.561279,389.317474 
	C271.561279,412.329926 271.561279,435.251526 271.561279,459.131622 
	C268.520660,459.131622 265.359772,459.568665 262.430481,458.934937 
	C261.098877,458.646851 259.688507,456.391083 259.230133,454.768951 
	C255.701004,442.280029 252.399551,429.726807 249.019089,417.195801 
	C248.647064,415.816620 248.222214,414.451721 246.710419,413.203979 
	C246.710419,428.370880 246.710419,443.537781 246.710419,458.388123 
	C245.730713,458.828369 245.437851,459.055756 245.125732,459.086243 
	C236.809738,459.899445 236.725708,459.822998 236.725235,451.591248 
	C236.724060,430.949463 236.724838,410.307709 236.724838,389.186707 
	C238.579941,389.046875 240.172241,388.926880 242.214661,388.804993 
z"/>
<path fill="#235E8C" opacity="1.000000" stroke="none" 
	d="
M341.810516,310.900024 
	C341.369354,295.766632 341.369354,280.690674 341.369354,264.403259 
	C367.087067,280.010986 391.969513,295.111786 417.048859,310.486450 
	C401.520844,310.854553 385.796082,310.977905 370.071075,311.032013 
	C360.798157,311.063904 351.524811,310.986023 341.810516,310.900024 
z"/>
<path fill="#215C8B" opacity="1.000000" stroke="none" 
	d="
M227.363098,310.879883 
	C251.981796,295.546417 277.075348,280.249420 303.102936,264.383026 
	C303.102936,280.240723 303.102936,295.114777 303.091431,310.450806 
	C277.999268,310.914001 252.918594,310.915192 227.363098,310.879883 
z"/>
<path fill="#215D8A" opacity="1.000000" stroke="none" 
	d="
M444.640015,209.723404 
	C419.728516,210.190628 394.927856,210.190628 370.127197,210.190628 
	C369.965118,209.864014 369.803009,209.537399 369.640930,209.210770 
	C394.410248,194.292618 419.179565,179.374481 444.273132,164.308258 
	C444.648499,179.192169 444.699677,194.224182 444.640015,209.723404 
z"/>
<path fill="#225C8A" opacity="1.000000" stroke="none" 
	d="
M444.665405,294.232605 
	C419.801178,279.840515 395.001373,264.929352 370.201599,250.018204 
	C370.251862,249.546066 370.302094,249.073944 370.352325,248.601807 
	C394.775330,248.601807 419.198334,248.601807 444.047302,248.626953 
	C444.558777,263.672577 444.644318,278.693054 444.665405,294.232605 
z"/>
<path fill="#205C8A" opacity="1.000000" stroke="none" 
	d="
M200.060150,164.783310 
	C224.951630,179.241760 249.765549,194.136459 274.579468,209.031143 
	C274.518250,209.461151 274.457062,209.891144 274.395874,210.321152 
	C249.933243,210.321152 225.470596,210.321152 200.544739,210.328308 
	C200.037323,210.114243 199.993118,209.893021 199.938416,208.885010 
	C199.863159,194.088821 199.798370,180.079391 199.733582,166.069962 
	C199.816559,165.786499 199.899567,165.503021 200.060150,164.783310 
z"/>
<path fill="#FAF8F7" opacity="1.000000" stroke="none" 
	d="
M409.826599,435.999939 
	C409.826569,420.207306 409.826569,404.914703 409.826569,389.225891 
	C413.549377,389.225891 416.923737,389.225891 420.835236,389.225891 
	C420.835236,398.973145 420.835236,408.555847 420.835236,418.535980 
	C425.067261,418.535980 428.774139,418.535980 433.207458,418.535980 
	C433.207458,408.767273 433.207458,399.051880 433.207458,389.123291 
	C437.335205,389.123291 440.746979,389.123291 444.498169,389.123291 
	C444.498169,412.469666 444.498169,435.503143 444.498169,458.850159 
	C440.780243,458.850159 437.367065,458.850159 433.437286,458.850159 
	C433.437286,449.083252 433.437286,439.496307 433.437286,429.496582 
	C429.214294,429.496582 425.495483,429.496582 421.067108,429.496582 
	C421.067108,439.143646 421.067108,448.845032 421.067108,458.853027 
	C417.122803,458.853027 413.875153,458.853027 409.826630,458.853027 
	C409.826630,451.338074 409.826630,443.919006 409.826599,435.999939 
z"/>
<path fill="#205C8B" opacity="1.000000" stroke="none" 
	d="
M200.136246,248.812317 
	C224.789886,248.682861 249.412964,248.682861 274.036011,248.682861 
	C274.214294,249.064301 274.392548,249.445724 274.570801,249.827164 
	C249.960602,264.659363 225.350388,279.491547 200.394333,294.456116 
	C199.994659,294.303986 199.940826,294.019562 199.871765,292.866211 
	C199.872635,277.703613 199.888702,263.409912 199.904785,249.116226 
	C199.904785,249.116226 200.105667,248.941772 200.136246,248.812317 
z"/>
<path fill="#FBF8F7" opacity="1.000000" stroke="none" 
	d="
M309.671387,419.996643 
	C310.739380,421.190094 311.834747,422.357300 311.861786,423.548767 
	C312.016602,430.377899 312.183167,437.225891 311.847717,444.042969 
	C311.221893,456.761505 300.410461,463.553986 288.456299,458.986816 
	C282.697418,456.786560 279.410675,452.343719 279.264221,446.455688 
	C278.895508,431.634369 278.748077,416.789551 279.174011,401.973175 
	C279.425781,393.215576 285.747589,388.174896 294.954132,387.993286 
	C304.511566,387.804749 310.387939,392.406616 311.672791,401.559052 
	C312.149719,404.956268 311.749878,408.476532 311.749878,412.253723 
	C310.225922,412.406891 308.934692,412.474243 307.664673,412.675476 
	C302.771606,413.450653 300.328461,411.780273 301.256134,406.492981 
	C301.425140,405.529694 301.250641,404.497528 301.175720,403.501587 
	C300.921753,400.126831 299.073578,398.335175 295.703033,398.270691 
	C292.290527,398.205353 290.219208,400.029449 290.188995,403.367462 
	C290.065277,417.030273 290.057098,430.695251 290.167542,444.358154 
	C290.193604,447.583771 292.065796,449.718628 295.494019,449.745300 
	C299.053528,449.773041 301.087799,447.895874 301.189301,444.257507 
	C301.291382,440.596924 301.680847,436.871826 301.136749,433.298004 
	C300.885529,431.647888 298.712067,430.290436 296.728760,429.353210 
	C296.601532,429.052460 296.380280,428.757721 296.360718,428.450104 
	C295.823761,420.001434 295.827179,419.999084 304.206970,419.965729 
	C305.873047,419.959106 307.539215,419.975708 309.671387,419.996643 
z"/>
<path fill="#235E8B" opacity="1.000000" stroke="none" 
	d="
M413.619751,149.029572 
	C413.410217,149.931763 412.957336,151.099945 412.108246,151.615448 
	C389.266663,165.482117 366.385071,179.282959 343.503601,193.083801 
	C343.095703,193.329819 342.606232,193.440659 341.315155,193.938065 
	C341.315155,178.731384 341.315155,163.892563 341.302979,148.596222 
	C363.666412,148.070465 386.041962,147.980438 408.417542,147.980133 
	C410.008942,147.980118 411.600342,148.638916 413.619751,149.029572 
M408.666962,150.292389 
	C407.308929,149.866150 405.952545,149.074936 404.592621,149.068817 
	C386.271820,148.986160 367.950165,148.965393 349.629944,149.098053 
	C348.081696,149.109253 346.542175,150.328964 345.160492,151.525818 
	C345.783325,151.682724 346.406006,151.975967 347.029053,151.976746 
	C366.262299,152.000854 385.495667,152.017288 404.728729,151.953339 
	C406.149475,151.948608 407.568207,151.333206 408.666962,150.292389 
z"/>
<path fill="#225D8A" opacity="1.000000" stroke="none" 
	d="
M230.406723,150.118347 
	C229.492279,149.625992 228.577835,149.133636 227.522186,148.354584 
	C252.319351,148.050247 277.257690,148.032562 302.669647,148.085388 
	C303.143250,163.220001 303.143250,178.284103 303.143250,194.430267 
	C278.504791,179.533798 254.706314,165.145187 231.177368,150.436188 
	C234.637543,150.415390 237.828217,150.714996 241.362183,151.240891 
	C242.507248,151.637161 243.308716,151.953979 244.110779,151.955490 
	C261.476562,151.988388 278.842468,152.006271 296.208069,151.948547 
	C297.460968,151.944397 298.711884,151.339584 300.235046,150.910110 
	C300.637207,150.703491 300.796753,150.621643 300.890656,150.492203 
	C300.981018,150.367661 301.003448,150.193848 301.055756,150.041702 
	C299.723389,149.697144 298.391937,149.056503 297.058533,149.052383 
	C276.603394,148.989151 256.147888,148.981735 235.692841,149.057434 
	C233.929520,149.063950 232.168701,149.748657 230.406723,150.118347 
z"/>
<path fill="#FBF8F7" opacity="1.000000" stroke="none" 
	d="
M402.178497,450.937927 
	C397.475952,459.412354 389.309265,462.262848 380.223053,458.924408 
	C372.723297,456.168854 369.354645,448.673767 371.161377,438.290833 
	C374.162811,438.290833 377.230194,438.290833 380.801727,438.290833 
	C380.908630,440.140411 381.019806,441.904541 381.110718,443.669739 
	C381.300507,447.353943 383.015259,449.755859 386.890350,449.733032 
	C390.936920,449.709229 392.899414,446.749969 392.218994,443.417603 
	C391.424866,439.528564 389.755371,435.535339 387.450958,432.313019 
	C384.876801,428.713562 381.117523,425.974304 377.956451,422.779144 
	C372.314148,417.075928 370.209564,410.144440 370.983765,402.234253 
	C371.846375,393.421021 377.550049,388.194305 386.565765,388.013885 
	C396.309021,387.818939 401.939362,392.381195 403.179565,401.508606 
	C403.358459,402.824951 403.467163,404.157196 403.497833,405.484589 
	C403.512482,406.119690 403.268463,406.760742 403.084473,407.686401 
	C399.777679,407.686401 396.561646,407.686401 393.193237,407.686401 
	C393.069214,405.954468 393.488953,404.089783 392.745453,403.090790 
	C391.332245,401.191986 389.243195,398.521912 387.454346,398.536682 
	C385.678101,398.551270 382.386749,401.555817 382.468781,403.105713 
	C382.667542,406.860840 383.711090,411.018982 385.768982,414.113800 
	C388.295166,417.912781 392.206665,420.788361 395.507141,424.075287 
	C403.020386,431.557617 405.471008,440.344513 402.178497,450.937927 
z"/>
<path fill="#FCFBF9" opacity="1.000000" stroke="none" 
	d="
M199.922058,419.000000 
	C199.922043,408.871063 199.922043,399.242096 199.922043,389.214905 
	C210.108582,389.214905 219.802414,389.214905 229.798340,389.214905 
	C229.798340,392.378296 229.798340,395.291138 229.798340,398.769470 
	C223.679047,398.769470 217.765030,398.769470 211.036621,398.769470 
	C211.036621,404.888458 210.885101,410.480225 211.199768,416.045624 
	C211.247040,416.881622 213.427948,418.150726 214.702850,418.258148 
	C218.300507,418.561310 221.940308,418.364105 225.866211,418.364105 
	C225.866211,421.933258 225.866211,424.862122 225.866211,428.527222 
	C220.992508,428.527222 216.283051,428.527222 211.287766,428.527222 
	C211.287766,435.658600 211.287766,442.056793 211.287766,448.936340 
	C217.432541,448.936340 223.360291,448.936340 229.160873,448.936340 
	C229.571579,449.803314 229.921936,450.221893 229.957672,450.665771 
	C230.639816,459.138458 230.632141,459.132935 222.162292,459.122070 
	C215.020233,459.112946 207.878128,459.120209 199.922058,459.120209 
	C199.922058,445.661652 199.922058,432.580811 199.922058,419.000000 
z"/>
<path fill="#FEFCFB" opacity="1.000000" stroke="none" 
	d="
M341.910858,459.113617 
	C334.151550,459.113739 326.880035,459.113739 319.313843,459.113739 
	C319.313843,435.594025 319.313843,412.691284 319.313843,389.169403 
	C321.570465,389.051544 323.820526,389.035126 326.046265,388.794189 
	C329.420776,388.428925 330.243591,389.970642 330.218933,393.141693 
	C330.089386,409.787964 330.158112,426.435760 330.157928,443.083038 
	C330.157898,444.876160 330.157898,446.669312 330.157898,448.923157 
	C336.285461,448.923157 341.874359,448.923157 347.879944,448.923157 
	C347.879944,452.419403 347.879944,455.441467 347.879944,459.113495 
	C345.947174,459.113495 344.172913,459.113495 341.910858,459.113617 
z"/>
<path fill="#FBFAFB" opacity="1.000000" stroke="none" 
	d="
M353.098938,413.000000 
	C353.098938,404.866913 353.098938,397.233826 353.098938,389.651825 
	C353.851349,389.305969 354.272705,388.963593 354.717590,388.929657 
	C364.274628,388.200928 364.276825,388.207611 364.277466,397.740540 
	C364.278656,416.059601 364.277771,434.378662 364.277771,452.697723 
	C364.277771,454.642334 364.277771,456.586975 364.277771,458.821716 
	C360.367706,458.821716 357.111542,458.821716 353.098907,458.821716 
	C353.098907,443.668243 353.098907,428.584106 353.098938,413.000000 
z"/>
<path fill="#67312B" opacity="1.000000" stroke="none" 
	d="
M178.971542,108.142204 
	C180.371933,108.057114 181.772339,107.972031 183.827179,107.969391 
	C184.645447,108.118210 184.809265,108.184578 184.973099,108.250954 
	C184.967697,240.493622 184.962280,372.736298 184.942276,505.437469 
	C184.747345,505.886322 184.567017,505.876648 184.148865,505.346619 
	C183.933105,477.018097 183.972122,449.209961 183.974213,421.401794 
	C183.981857,319.492676 183.975113,217.583572 183.986084,115.674454 
	C183.986465,112.143600 184.679886,108.197189 178.983734,108.730095 
	C178.979263,108.534142 178.971542,108.142204 178.971542,108.142204 
z"/>
<path fill="#F7B733" opacity="1.000000" stroke="none" 
	d="
M185.435760,108.187927 
	C184.809265,108.184578 184.645447,108.118210 184.247101,107.927704 
	C184.193268,107.572639 184.401535,107.370033 184.819275,107.074043 
	C267.769775,106.965691 350.538300,106.975266 433.306854,107.011856 
	C435.618378,107.012878 437.929810,107.303009 440.589600,107.661758 
	C438.611176,107.922806 436.284485,108.030518 433.957764,108.030769 
	C353.599884,108.039474 273.242004,108.037292 192.884109,108.041672 
	C190.555542,108.041794 188.226990,108.095947 185.435760,108.187927 
z"/>
<path fill="#BF615A" opacity="1.000000" stroke="none" 
	d="
M199.543945,166.357712 
	C199.798370,180.079391 199.863159,194.088821 199.839539,208.561401 
	C198.841690,207.709549 197.169327,206.409470 197.143311,205.077240 
	C196.931900,194.248642 196.912994,183.411652 197.136276,172.583405 
	C197.177368,170.589706 198.580078,168.624054 199.543945,166.357712 
z"/>
<path fill="#BB6255" opacity="1.000000" stroke="none" 
	d="
M199.555222,249.257706 
	C199.888702,263.409912 199.872635,277.703613 199.756516,292.447510 
	C199.104126,288.348083 198.215805,283.808899 198.072723,279.246399 
	C197.813873,270.992065 197.933670,262.722839 198.054581,254.462158 
	C198.079361,252.769257 198.803757,251.086578 199.555222,249.257706 
z"/>
<path fill="#B68A1F" opacity="1.000000" stroke="none" 
	d="
M462.000000,397.000000 
	C462.000000,307.755829 462.000000,219.011688 462.000000,130.267517 
	C462.434631,130.267990 462.869263,130.268448 463.303894,130.268921 
	C463.303894,249.441666 463.303894,368.614410 463.303894,487.787140 
	C462.869263,487.792145 462.434631,487.797150 462.000000,487.802155 
	C462.000000,457.701416 462.000000,427.600708 462.000000,397.000000 
z"/>
<path fill="#67312B" opacity="1.000000" stroke="none" 
	d="
M168.042923,505.816589 
	C167.518448,505.799194 166.993988,505.781769 166.084991,505.663666 
	C163.729996,505.367706 161.759552,505.172424 159.391525,504.511353 
	C158.993988,373.365234 158.994034,242.684967 158.994064,112.004677 
	C159.194351,111.074356 159.394638,110.144028 159.649658,108.856812 
	C159.704407,108.499916 159.736908,108.527824 160.223938,108.669510 
	C166.525818,108.906540 172.340683,109.001877 178.137482,109.559364 
	C178.095154,113.185501 178.049774,116.349503 178.049667,119.513496 
	C178.046066,237.092133 178.044312,354.670746 178.050415,472.249390 
	C178.050995,483.407257 178.104370,494.565155 178.133224,505.723022 
	C175.371597,505.774689 172.609970,505.826385 169.286942,505.751434 
	C168.463028,505.547180 168.235489,505.611115 168.042923,505.816589 
z"/>
<path fill="#6A2F36" opacity="1.000000" stroke="none" 
	d="
M158.747406,112.120674 
	C158.994034,242.684967 158.993988,373.365234 158.993866,504.507996 
	C158.539597,504.961670 158.085434,504.952881 157.305695,504.467590 
	C156.986740,488.157837 156.996979,472.324585 156.999420,456.491302 
	C157.017014,341.991669 157.033066,227.492065 157.049591,112.992447 
	C157.533325,112.740517 158.017044,112.488594 158.747406,112.120674 
z"/>
<path fill="#5E3219" opacity="1.000000" stroke="none" 
	d="
M156.806885,113.331154 
	C157.033066,227.492065 157.017014,341.991669 156.999420,456.491302 
	C156.996979,472.324585 156.986740,488.157837 156.965363,504.449371 
	C156.635269,502.978821 156.044510,501.050079 156.043854,499.121185 
	C156.000336,372.440552 156.002213,245.759933 156.027771,119.079315 
	C156.028137,117.276131 156.377625,115.473015 156.806885,113.331154 
z"/>
<path fill="#3A1917" opacity="1.000000" stroke="none" 
	d="
M178.538300,505.793579 
	C178.104370,494.565155 178.050995,483.407257 178.050415,472.249390 
	C178.044312,354.670746 178.046066,237.092133 178.049667,119.513496 
	C178.049774,116.349503 178.095154,113.185501 178.347015,109.526352 
	C178.574615,109.031197 178.988220,108.926048 178.988220,108.926048 
	C184.679886,108.197189 183.986465,112.143600 183.986084,115.674454 
	C183.975113,217.583572 183.981857,319.492676 183.974213,421.401794 
	C183.972122,449.209961 183.933105,477.018097 183.887894,505.274017 
	C182.224289,505.769226 180.583832,505.816711 178.538300,505.793579 
z"/>
<path fill="#6E372E" opacity="1.000000" stroke="none" 
	d="
M168.267731,505.831238 
	C168.235489,505.611115 168.463028,505.547180 168.830505,505.694031 
	C168.935455,505.763245 168.492538,505.845886 168.267731,505.831238 
z"/>
<path fill="#6E372E" opacity="1.000000" stroke="none" 
	d="
M178.983734,108.730095 
	C178.988220,108.926048 178.574615,109.031197 178.365082,109.064209 
	C172.340683,109.001877 166.525818,108.906540 160.233002,108.688995 
	C160.034042,108.394829 160.313034,108.222870 161.281784,108.018311 
	C167.644974,107.907700 173.318405,107.829681 178.991837,107.751663 
	C178.991837,107.751663 178.990952,107.947433 178.981247,108.044815 
	C178.971542,108.142204 178.979263,108.534142 178.983734,108.730095 
z"/>
<path fill="#F7B733" opacity="1.000000" stroke="none" 
	d="
M178.626007,107.571190 
	C173.318405,107.829681 167.644974,107.907700 161.512329,107.913445 
	C166.788788,107.691017 172.524490,107.540871 178.626007,107.571190 
z"/>
<path fill="#185D92" opacity="1.000000" stroke="none" 
	d="
M344.998596,150.987213 
	C346.542175,150.328964 348.081696,149.109253 349.629944,149.098053 
	C367.950165,148.965393 386.271820,148.986160 404.592621,149.068817 
	C405.952545,149.074936 407.308929,149.866150 408.360229,150.648041 
	C387.035187,150.998199 366.016907,150.992706 344.998596,150.987213 
z"/>
<path fill="#28527C" opacity="1.000000" stroke="none" 
	d="
M345.079529,151.256500 
	C366.016907,150.992706 387.035187,150.998199 408.520691,151.002701 
	C407.568207,151.333206 406.149475,151.948608 404.728729,151.953339 
	C385.495667,152.017288 366.262299,152.000854 347.029053,151.976746 
	C346.406006,151.975967 345.783325,151.682724 345.079529,151.256500 
z"/>
<path fill="#185B93" opacity="1.000000" stroke="none" 
	d="
M230.427155,150.132584 
	C232.168701,149.748657 233.929520,149.063950 235.692841,149.057434 
	C256.147888,148.981735 276.603394,148.989151 297.058533,149.052383 
	C298.391937,149.056503 299.723389,149.697144 301.055756,150.041702 
	C301.003448,150.193848 300.981018,150.367661 300.890656,150.492203 
	C300.796753,150.621643 300.637207,150.703491 299.770630,150.907806 
	C279.696198,151.011169 260.357544,151.012878 241.018875,151.014587 
	C237.828217,150.714996 234.637543,150.415390 230.956070,150.154449 
	C230.465256,150.193115 230.447571,150.146820 230.427155,150.132584 
z"/>
<path fill="#28527C" opacity="1.000000" stroke="none" 
	d="
M241.362183,151.240891 
	C260.357544,151.012878 279.696198,151.011169 299.499268,151.011749 
	C298.711884,151.339584 297.460968,151.944397 296.208069,151.948547 
	C278.842468,152.006271 261.476562,151.988388 244.110779,151.955490 
	C243.308716,151.953979 242.507248,151.637161 241.362183,151.240891 
z"/>
</svg>