<svg version="1.1" id="Layer_1" xmlns="http://www.w3.org/2000/svg" xmlns:xlink="http://www.w3.org/1999/xlink" x="0px" y="0px"
	 width="100%" viewBox="0 0 1200 1199" enable-background="new 0 0 1200 1199" xml:space="preserve">
<path fill="#BF1E2E" opacity="1.000000" stroke="none" 
	d="
M1.000002,605.000000 
	C1.000000,602.299988 1.000000,599.599976 1.394527,596.259033 
	C2.191998,584.531555 2.207721,573.414124 3.088827,562.365784 
	C4.403782,545.877319 5.872917,529.374817 8.125284,512.995056 
	C10.271171,497.389618 12.598682,481.703278 16.473448,466.466309 
	C22.247007,443.762543 28.777529,421.197052 36.217899,398.985352 
	C45.174793,372.246429 56.768795,346.544678 70.018578,321.601807 
	C84.140549,295.016968 100.069847,269.620758 117.860100,245.322311 
	C132.603424,225.185471 148.387878,205.929184 165.698700,188.019470 
	C178.700272,174.568069 192.510941,161.869934 206.366486,149.282349 
	C216.304382,140.253906 226.586456,131.532990 237.285675,123.428261 
	C261.901978,104.781235 287.634186,87.704880 314.871338,73.147156 
	C342.620789,58.315639 371.239197,45.275272 401.030792,34.934738 
	C441.159149,21.006374 482.116791,10.631077 524.408386,6.035337 
	C539.577698,4.386923 554.812317,3.341411 570.012268,1.967625 
	C571.028992,1.875732 572.005066,1.333027 573.000000,1.000001 
	C591.354248,1.000000 609.708435,1.000000 628.721802,1.394200 
	C635.632202,2.190303 641.904053,2.391856 648.130493,3.033999 
	C663.095215,4.577335 678.090027,5.968713 692.975647,8.099244 
	C706.632751,10.053952 720.274658,12.403252 733.725281,15.451831 
	C759.605713,21.317595 785.098694,28.663353 809.939514,38.067280 
	C833.574646,47.014793 856.698486,57.081108 879.089783,68.908409 
	C904.679749,82.425293 929.591858,97.066948 952.638916,114.499489 
	C972.197266,129.293274 991.492065,144.643402 1009.388062,161.368820 
	C1027.371216,178.175674 1043.991455,196.539017 1060.243408,215.067215 
	C1072.036865,228.512589 1082.951538,242.866791 1092.999390,257.670013 
	C1105.097168,275.493317 1116.194214,294.026245 1127.117798,312.608582 
	C1139.959961,334.454803 1150.311157,357.556915 1159.568115,381.133148 
	C1169.091553,405.388062 1177.113525,430.122864 1183.197266,455.481812 
	C1188.774414,478.729248 1193.805542,502.077271 1195.962769,525.925964 
	C1197.516602,543.103943 1198.658936,560.319031 1200.036499,577.513367 
	C1200.104492,578.362549 1200.667480,579.171997 1201.000000,580.000000 
	C1201.000000,593.354248 1201.000000,606.708435 1200.605469,620.722229 
	C1199.808105,628.802429 1199.615845,636.241882 1198.955322,643.639587 
	C1197.790161,656.689758 1196.682617,669.761169 1194.915894,682.737244 
	C1192.985840,696.914490 1190.772827,711.083313 1187.903809,725.096313 
	C1182.543457,751.277405 1175.110962,776.880127 1166.148926,802.099976 
	C1154.325073,835.373169 1139.486694,867.158569 1122.082275,897.841858 
	C1107.779419,923.057312 1092.201538,947.420349 1073.647095,969.691956 
	C1057.866577,988.633789 1041.838379,1007.436646 1024.846802,1025.279297 
	C1012.838989,1037.888550 999.367126,1049.185791 985.947083,1060.344971 
	C972.291077,1071.700439 958.259216,1082.681519 943.750610,1092.917480 
	C915.452637,1112.882324 885.529846,1130.123901 853.995239,1144.572021 
	C831.607300,1154.829468 808.785522,1163.819336 785.339783,1171.390869 
	C750.480652,1182.648193 715.021851,1190.998169 678.593018,1194.968018 
	C663.753418,1196.585205 648.854675,1197.658325 633.987732,1199.032104 
	C632.970642,1199.126099 631.994934,1199.666870 631.000000,1200.000000 
	C611.312439,1200.000000 591.624878,1200.000000 571.278442,1199.605957 
	C554.587341,1197.808838 538.527283,1196.661499 522.532288,1194.917236 
	C510.873688,1193.645752 499.169739,1192.197998 487.720276,1189.738403 
	C470.320526,1186.000244 453.051056,1181.588257 435.855621,1176.979736 
	C398.507385,1166.970459 362.928741,1152.378052 328.485260,1134.891357 
	C302.216248,1121.554810 277.282959,1106.096680 253.214310,1089.115234 
	C231.775116,1073.989014 211.349411,1057.607666 192.370300,1039.586426 
	C177.479004,1025.446655 163.403427,1010.376709 149.765198,995.010132 
	C138.390274,982.193604 128.033188,968.458374 117.479172,954.931946 
	C98.028351,930.002686 81.920120,902.909058 67.583847,874.831360 
	C58.824017,857.675171 50.766560,840.061829 43.831841,822.098572 
	C36.040424,801.916199 29.258791,781.287964 23.152369,760.525879 
	C16.096031,736.533997 10.694694,712.091064 7.970803,687.155334 
	C6.246196,671.367493 4.365204,655.588257 3.099321,639.761597 
	C2.241928,629.042053 2.351943,618.246094 1.957814,607.486877 
	C1.927058,606.647339 1.332514,605.828491 1.000002,605.000000 
M364.088318,1017.385315 
	C432.357056,1056.186279 505.820221,1076.776245 584.205872,1079.727051 
	C624.142761,1081.230591 663.750549,1077.919312 702.766785,1069.111084 
	C829.111938,1040.587769 929.181946,972.732727 1000.780945,865.053162 
	C1071.310547,758.981750 1094.557007,641.871277 1072.988281,516.476990 
	C1055.261475,413.419250 1008.130615,324.943756 931.785217,253.739029 
	C814.037659,143.920013 674.308411,102.352615 515.572388,129.116653 
	C412.675446,146.465836 324.915985,194.576721 253.621140,270.648285 
	C155.218445,375.643921 112.519234,500.817841 123.851601,644.207764 
	C128.571381,703.927734 144.938049,760.615906 171.820648,814.120361 
	C215.397552,900.851379 279.462189,968.386292 364.088318,1017.385315 
z"/>
<path fill="#FFFFFF" opacity="1.000000" stroke="none" 
	d="
M572.531372,1.000001 
	C572.005066,1.333027 571.028992,1.875732 570.012268,1.967625 
	C554.812317,3.341411 539.577698,4.386923 524.408386,6.035337 
	C482.116791,10.631077 441.159149,21.006374 401.030792,34.934738 
	C371.239197,45.275272 342.620789,58.315639 314.871338,73.147156 
	C287.634186,87.704880 261.901978,104.781235 237.285675,123.428261 
	C226.586456,131.532990 216.304382,140.253906 206.366486,149.282349 
	C192.510941,161.869934 178.700272,174.568069 165.698700,188.019470 
	C148.387878,205.929184 132.603424,225.185471 117.860100,245.322311 
	C100.069847,269.620758 84.140549,295.016968 70.018578,321.601807 
	C56.768795,346.544678 45.174793,372.246429 36.217899,398.985352 
	C28.777529,421.197052 22.247007,443.762543 16.473448,466.466309 
	C12.598682,481.703278 10.271171,497.389618 8.125284,512.995056 
	C5.872917,529.374817 4.403782,545.877319 3.088827,562.365784 
	C2.207721,573.414124 2.191998,584.531555 1.394527,595.809021 
	C1.000000,397.741028 1.000000,199.482025 1.000000,1.000000 
	C191.354172,1.000000 381.708435,1.000000 572.531372,1.000001 
z"/>
<path fill="#FFFFFF" opacity="1.000000" stroke="none" 
	d="
M1.000002,605.468628 
	C1.332514,605.828491 1.927058,606.647339 1.957814,607.486877 
	C2.351943,618.246094 2.241928,629.042053 3.099321,639.761597 
	C4.365204,655.588257 6.246196,671.367493 7.970803,687.155334 
	C10.694694,712.091064 16.096031,736.533997 23.152369,760.525879 
	C29.258791,781.287964 36.040424,801.916199 43.831841,822.098572 
	C50.766560,840.061829 58.824017,857.675171 67.583847,874.831360 
	C81.920120,902.909058 98.028351,930.002686 117.479172,954.931946 
	C128.033188,968.458374 138.390274,982.193604 149.765198,995.010132 
	C163.403427,1010.376709 177.479004,1025.446655 192.370300,1039.586426 
	C211.349411,1057.607666 231.775116,1073.989014 253.214310,1089.115234 
	C277.282959,1106.096680 302.216248,1121.554810 328.485260,1134.891357 
	C362.928741,1152.378052 398.507385,1166.970459 435.855621,1176.979736 
	C453.051056,1181.588257 470.320526,1186.000244 487.720276,1189.738403 
	C499.169739,1192.197998 510.873688,1193.645752 522.532288,1194.917236 
	C538.527283,1196.661499 554.587341,1197.808838 570.809753,1199.605957 
	C381.071350,1200.000000 191.142700,1200.000000 1.000000,1200.000000 
	C1.000000,1001.979187 1.000000,803.958252 1.000002,605.468628 
z"/>
<path fill="#FFFFFF" opacity="1.000000" stroke="none" 
	d="
M1201.000000,579.531372 
	C1200.667480,579.171997 1200.104492,578.362549 1200.036499,577.513367 
	C1198.658936,560.319031 1197.516602,543.103943 1195.962769,525.925964 
	C1193.805542,502.077271 1188.774414,478.729248 1183.197266,455.481812 
	C1177.113525,430.122864 1169.091553,405.388062 1159.568115,381.133148 
	C1150.311157,357.556915 1139.959961,334.454803 1127.117798,312.608582 
	C1116.194214,294.026245 1105.097168,275.493317 1092.999390,257.670013 
	C1082.951538,242.866791 1072.036865,228.512589 1060.243408,215.067215 
	C1043.991455,196.539017 1027.371216,178.175674 1009.388062,161.368820 
	C991.492065,144.643402 972.197266,129.293274 952.638916,114.499489 
	C929.591858,97.066948 904.679749,82.425293 879.089783,68.908409 
	C856.698486,57.081108 833.574646,47.014793 809.939514,38.067280 
	C785.098694,28.663353 759.605713,21.317595 733.725281,15.451831 
	C720.274658,12.403252 706.632751,10.053952 692.975647,8.099244 
	C678.090027,5.968713 663.095215,4.577335 648.130493,3.033999 
	C641.904053,2.391856 635.632202,2.190303 629.190491,1.394200 
	C819.594177,1.000000 1010.188416,1.000000 1201.000000,1.000000 
	C1201.000000,193.687500 1201.000000,386.375092 1201.000000,579.531372 
z"/>
<path fill="#FFFFFF" opacity="1.000000" stroke="none" 
	d="
M631.468628,1200.000000 
	C631.994934,1199.666870 632.970642,1199.126099 633.987732,1199.032104 
	C648.854675,1197.658325 663.753418,1196.585205 678.593018,1194.968018 
	C715.021851,1190.998169 750.480652,1182.648193 785.339783,1171.390869 
	C808.785522,1163.819336 831.607300,1154.829468 853.995239,1144.572021 
	C885.529846,1130.123901 915.452637,1112.882324 943.750610,1092.917480 
	C958.259216,1082.681519 972.291077,1071.700439 985.947083,1060.344971 
	C999.367126,1049.185791 1012.838989,1037.888550 1024.846802,1025.279297 
	C1041.838379,1007.436646 1057.866577,988.633789 1073.647095,969.691956 
	C1092.201538,947.420349 1107.779419,923.057312 1122.082275,897.841858 
	C1139.486694,867.158569 1154.325073,835.373169 1166.148926,802.099976 
	C1175.110962,776.880127 1182.543457,751.277405 1187.903809,725.096313 
	C1190.772827,711.083313 1192.985840,696.914490 1194.915894,682.737244 
	C1196.682617,669.761169 1197.790161,656.689758 1198.955322,643.639587 
	C1199.615845,636.241882 1199.808105,628.802429 1200.605469,621.190918 
	C1201.000000,813.926514 1201.000000,1006.853027 1201.000000,1200.000000 
	C1011.312500,1200.000000 821.624878,1200.000000 631.468628,1200.000000 
z"/>
<path fill="#FEFDFD" opacity="1.000000" stroke="none" 
	d="
M363.763611,1017.214355 
	C279.462189,968.386292 215.397552,900.851379 171.820648,814.120361 
	C144.938049,760.615906 128.571381,703.927734 123.851601,644.207764 
	C112.519234,500.817841 155.218445,375.643921 253.621140,270.648285 
	C324.915985,194.576721 412.675446,146.465836 515.572388,129.116653 
	C674.308411,102.352615 814.037659,143.920013 931.785217,253.739029 
	C1008.130615,324.943756 1055.261475,413.419250 1072.988281,516.476990 
	C1094.557007,641.871277 1071.310547,758.981750 1000.780945,865.053162 
	C929.181946,972.732727 829.111938,1040.587769 702.766785,1069.111084 
	C663.750549,1077.919312 624.142761,1081.230591 584.205872,1079.727051 
	C505.820221,1076.776245 432.357056,1056.186279 363.763611,1017.214355 
M402.130035,190.663010 
	C309.451874,236.512817 239.359802,305.418243 193.183075,397.876617 
	C149.277695,485.787170 135.926651,578.800659 151.953430,675.648621 
	C168.719604,776.964661 214.451614,863.745911 290.122437,932.957947 
	C405.878052,1038.833374 542.491882,1077.498169 695.930969,1045.532471 
	C837.425415,1016.054993 941.520325,933.660828 1007.802551,805.440979 
	C1054.674316,714.769958 1067.279175,618.072754 1049.030518,517.695923 
	C1032.324707,425.805115 990.350586,346.765961 925.022949,280.179535 
	C888.068604,242.513107 845.626221,212.331177 797.972107,189.611313 
	C717.751892,151.365067 633.386414,137.982056 545.266785,148.386993 
	C495.452209,154.268951 447.969025,168.474014 402.130035,190.663010 
z"/>
<path fill="#C02130" opacity="1.000000" stroke="none" 
	d="
M402.451660,190.465103 
	C447.969025,168.474014 495.452209,154.268951 545.266785,148.386993 
	C633.386414,137.982056 717.751892,151.365067 797.972107,189.611313 
	C845.626221,212.331177 888.068604,242.513107 925.022949,280.179535 
	C990.350586,346.765961 1032.324707,425.805115 1049.030518,517.695923 
	C1067.279175,618.072754 1054.674316,714.769958 1007.802551,805.440979 
	C941.520325,933.660828 837.425415,1016.054993 695.930969,1045.532471 
	C542.491882,1077.498169 405.878052,1038.833374 290.122437,932.957947 
	C214.451614,863.745911 168.719604,776.964661 151.953430,675.648621 
	C135.926651,578.800659 149.277695,485.787170 193.183075,397.876617 
	C239.359802,305.418243 309.451874,236.512817 402.451660,190.465103 
M967.845337,370.678253 
	C949.078918,340.758148 927.327209,313.143372 901.495056,289.094849 
	C796.118774,190.994370 671.880127,151.964020 529.644897,174.092484 
	C433.823975,188.999969 352.065491,233.035522 286.306122,304.109924 
	C190.935135,407.189362 153.593231,529.495422 174.093002,668.321716 
	C188.419449,765.341614 232.365738,848.208923 304.203644,914.846558 
	C408.634888,1011.718140 532.484680,1048.932129 673.083130,1026.942383 
	C768.005798,1012.096313 849.054016,968.494934 914.635010,898.502258 
	C1005.470764,801.555969 1043.983276,685.932129 1031.143555,553.665161 
	C1024.768066,487.988647 1003.096497,427.291351 967.845337,370.678253 
z"/>
<path fill="#FFFFFF" opacity="1.000000" stroke="none" 
	d="
M968.026367,370.991577 
	C1003.096497,427.291351 1024.768066,487.988647 1031.143555,553.665161 
	C1043.983276,685.932129 1005.470764,801.555969 914.635010,898.502258 
	C849.054016,968.494934 768.005798,1012.096313 673.083130,1026.942383 
	C532.484680,1048.932129 408.634888,1011.718140 304.203644,914.846558 
	C232.365738,848.208923 188.419449,765.341614 174.093002,668.321716 
	C153.593231,529.495422 190.935135,407.189362 286.306122,304.109924 
	C352.065491,233.035522 433.823975,188.999969 529.644897,174.092484 
	C671.880127,151.964020 796.118774,190.994370 901.495056,289.094849 
	C927.327209,313.143372 949.078918,340.758148 968.026367,370.991577 
M526.439636,407.211456 
	C523.541748,399.269806 520.643860,391.328186 517.259338,382.052917 
	C513.861145,391.581757 510.933563,399.791077 507.575348,408.578491 
	C503.081177,421.087128 498.587036,433.595764 494.015259,447.025696 
	C494.059845,576.308838 494.104218,705.592041 494.153656,834.875183 
	C494.154022,835.873230 494.223450,836.871216 494.159729,838.812744 
	C494.190582,845.224854 494.221405,851.636963 494.159271,858.975769 
	C494.148254,870.470947 494.099670,881.966248 494.138641,893.461243 
	C494.167358,901.927795 497.798096,905.771301 506.131744,905.992004 
	C513.623047,906.190308 521.121155,906.228455 528.615417,906.186096 
	C535.715881,906.146057 539.797241,902.148865 539.839783,895.028381 
	C539.913452,882.702454 539.789001,870.375305 539.867126,857.119507 
	C539.824951,850.703064 539.782837,844.286560 539.833740,836.953674 
	C539.890503,826.630493 539.975342,816.307312 539.999573,805.984070 
	C540.202209,719.566528 540.412476,633.149109 540.578918,546.731506 
	C540.639893,515.091980 540.598511,483.452240 540.565491,451.812622 
	C540.563477,449.849823 540.225891,447.887329 539.993591,445.159882 
	C535.516602,432.777405 531.039673,420.394958 526.439636,407.211456 
M758.070190,483.362244 
	C757.883423,482.940063 757.696655,482.517853 757.402710,481.306976 
	C754.860596,475.670441 752.318542,470.033905 750.664612,464.493073 
	C764.490417,466.328491 778.304321,468.261017 792.147583,469.953949 
	C798.106262,470.682648 802.232483,467.853851 805.062561,462.577393 
	C809.773621,453.793732 814.756165,445.155975 819.592285,436.438965 
	C821.084839,433.748749 822.473083,431.000763 824.284546,427.567627 
	C752.375732,426.625336 693.808716,401.533295 654.639648,338.346466 
	C649.576965,347.704681 645.578186,356.528198 640.296143,364.501556 
	C633.527771,374.718567 632.391357,383.955261 640.809326,392.996887 
	C637.741821,392.337036 634.695251,391.550415 631.603027,391.040466 
	C621.229004,389.329651 610.875000,387.417877 600.444031,386.155975 
	C590.930115,385.005005 581.326050,384.599518 571.134766,383.817352 
	C571.134766,387.994934 571.134766,391.384918 571.134766,394.774872 
	C570.770386,394.773438 570.406006,394.771973 570.041626,394.770508 
	C570.041626,391.353241 570.041626,387.935974 570.041626,384.273071 
	C562.475098,384.273071 555.422607,384.273071 548.230103,384.273071 
	C548.230103,482.220154 548.230103,579.749084 548.230103,677.621826 
	C554.654541,677.621826 560.699829,677.621826 567.017944,677.621826 
	C566.826416,674.142944 566.656677,671.060059 566.486938,667.977173 
	C566.775635,667.943726 567.064331,667.910217 567.352966,667.876770 
	C567.674072,671.209290 567.995117,674.541809 568.289551,677.597961 
	C573.229553,677.597961 577.553772,677.702454 581.870544,677.568054 
	C586.029053,677.438599 590.176758,676.971191 594.335205,676.822021 
	C597.867615,676.695374 601.345276,675.812439 604.799988,675.409546 
	C627.011963,672.819519 648.927002,668.988892 669.977844,660.489014 
	C680.582336,656.207031 690.890991,651.807373 700.939697,646.287415 
	C718.647339,636.560242 733.101013,623.611023 745.037781,606.880859 
	C745.377014,606.283630 745.716248,605.686401 746.421936,604.508667 
	C749.524292,598.624146 752.713745,592.782654 755.655396,586.818848 
	C756.242249,585.628967 755.882019,583.971985 755.984680,582.038635 
	C758.422180,581.268738 762.308044,571.734375 763.297058,561.046814 
	C763.413757,559.785217 762.224182,558.402771 761.677185,557.160278 
	C764.944641,556.240112 767.266907,544.870422 765.321411,534.179321 
	C761.694458,534.179321 757.947754,534.179321 754.201050,534.179321 
	C754.199829,533.756714 754.198547,533.334106 754.197327,532.911499 
	C758.052795,532.911499 761.908325,532.911499 765.899048,532.911499 
	C765.899048,529.408386 766.012939,526.582336 765.879578,523.767944 
	C765.259155,510.678131 765.234863,510.681824 752.063599,511.555939 
	C751.767517,511.575623 751.455383,511.352814 749.714905,510.726105 
	C755.369934,510.238037 759.662476,509.867584 765.308350,509.380310 
	C762.750000,500.312958 760.424561,492.071167 758.070190,483.362244 
M823.180115,405.205902 
	C835.574036,406.525238 847.967957,407.844604 860.365845,409.164368 
	C860.337219,409.612610 860.418579,409.987488 860.281738,410.247620 
	C849.599060,430.557892 838.941528,450.881775 828.085754,471.099213 
	C827.497131,472.195526 825.233948,472.933563 823.757935,472.921204 
	C816.414246,472.859802 810.646606,475.854736 807.151306,482.113525 
	C801.722412,491.834869 796.833923,501.858337 791.732666,511.762146 
	C789.752625,515.606384 790.760376,518.291443 794.666382,520.298096 
	C804.575073,525.388550 814.401367,530.640442 824.228638,535.887695 
	C827.861145,537.827209 830.567261,537.098572 832.570801,533.494934 
	C838.308044,523.175903 844.193054,512.936707 849.779236,502.536835 
	C852.897522,496.731476 852.549561,490.713074 848.114197,485.788757 
	C845.771301,483.187683 846.188782,481.499390 847.561157,478.901733 
	C857.115051,460.819214 866.538574,442.667877 876.020752,424.547394 
	C878.176514,420.427826 879.441895,414.691162 882.861389,412.710876 
	C886.214783,410.768921 891.790405,412.663788 896.390686,412.877014 
	C896.723389,412.892426 897.055786,412.919861 897.387207,412.953339 
	C902.944214,413.514893 907.812500,412.292938 910.508850,406.929626 
	C913.215088,401.546509 910.464783,397.496460 906.905579,393.534454 
	C875.861572,358.976135 844.849609,324.388672 813.924133,289.724274 
	C803.607544,278.160400 790.599426,271.338196 775.619629,269.026398 
	C756.054993,266.007050 736.316833,264.113190 716.653992,261.729218 
	C688.565613,258.323700 660.481323,254.884918 632.387634,251.524033 
	C625.414673,250.689850 619.215576,255.182205 619.616882,261.543549 
	C619.836670,265.026978 621.628418,269.003876 623.956299,271.671936 
	C654.606750,306.801208 685.633179,341.602997 716.212158,376.793793 
	C726.857788,389.044952 740.181152,395.941315 755.746582,398.015198 
	C777.844666,400.959473 800.089661,402.801788 823.180115,405.205902 
z"/>
<path fill="#BF1F2F" opacity="1.000000" stroke="none" 
	d="
M822.725952,405.160431 
	C800.089661,402.801788 777.844666,400.959473 755.746582,398.015198 
	C740.181152,395.941315 726.857788,389.044952 716.212158,376.793793 
	C685.633179,341.602997 654.606750,306.801208 623.956299,271.671936 
	C621.628418,269.003876 619.836670,265.026978 619.616882,261.543549 
	C619.215576,255.182205 625.414673,250.689850 632.387634,251.524033 
	C660.481323,254.884918 688.565613,258.323700 716.653992,261.729218 
	C736.316833,264.113190 756.054993,266.007050 775.619629,269.026398 
	C790.599426,271.338196 803.607544,278.160400 813.924133,289.724274 
	C844.849609,324.388672 875.861572,358.976135 906.905579,393.534454 
	C910.464783,397.496460 913.215088,401.546509 910.508850,406.929626 
	C907.812500,412.292938 902.944214,413.514893 897.387207,412.953339 
	C897.055786,412.919861 896.723389,412.892426 896.390686,412.877014 
	C891.790405,412.663788 886.214783,410.768921 882.861389,412.710876 
	C879.441895,414.691162 878.176514,420.427826 876.020752,424.547394 
	C866.538574,442.667877 857.115051,460.819214 847.561157,478.901733 
	C846.188782,481.499390 845.771301,483.187683 848.114197,485.788757 
	C852.549561,490.713074 852.897522,496.731476 849.779236,502.536835 
	C844.193054,512.936707 838.308044,523.175903 832.570801,533.494934 
	C830.567261,537.098572 827.861145,537.827209 824.228638,535.887695 
	C814.401367,530.640442 804.575073,525.388550 794.666382,520.298096 
	C790.760376,518.291443 789.752625,515.606384 791.732666,511.762146 
	C796.833923,501.858337 801.722412,491.834869 807.151306,482.113525 
	C810.646606,475.854736 816.414246,472.859802 823.757935,472.921204 
	C825.233948,472.933563 827.497131,472.195526 828.085754,471.099213 
	C838.941528,450.881775 849.599060,430.557892 860.281738,410.247620 
	C860.418579,409.987488 860.337219,409.612610 860.365845,409.164368 
	C847.967957,407.844604 835.574036,406.525238 822.725952,405.160431 
z"/>
<path fill="#42C7EE" opacity="1.000000" stroke="none" 
	d="
M744.576050,607.138428 
	C733.101013,623.611023 718.647339,636.560242 700.939697,646.287415 
	C690.890991,651.807373 680.582336,656.207031 669.977844,660.489014 
	C648.927002,668.988892 627.011963,672.819519 604.799988,675.409546 
	C601.345276,675.812439 597.867615,676.695374 594.335205,676.822021 
	C590.176758,676.971191 586.029053,677.438599 581.870544,677.568054 
	C577.553772,677.702454 573.229553,677.597961 568.289551,677.597961 
	C567.995117,674.541809 567.674072,671.209290 567.352966,667.876770 
	C567.064331,667.910217 566.775635,667.943726 566.486938,667.977173 
	C566.656677,671.060059 566.826416,674.142944 567.017944,677.621826 
	C560.699829,677.621826 554.654541,677.621826 548.230103,677.621826 
	C548.230103,579.749084 548.230103,482.220154 548.230103,384.273071 
	C555.422607,384.273071 562.475098,384.273071 570.041626,384.273071 
	C570.041626,387.935974 570.041626,391.353241 570.041626,394.770508 
	C570.406006,394.771973 570.770386,394.773438 571.134766,394.774872 
	C571.134766,391.384918 571.134766,387.994934 571.134766,383.817352 
	C581.326050,384.599518 590.930115,385.005005 600.444031,386.155975 
	C610.875000,387.417877 621.229004,389.329651 631.603027,391.040466 
	C634.695251,391.550415 637.741821,392.337036 641.490112,393.200684 
	C670.463684,428.551361 705.491638,453.489838 749.776428,464.397369 
	C752.318542,470.033905 754.860596,475.670441 757.057800,481.800507 
	C752.674561,483.338806 748.636230,484.383606 744.597961,485.428375 
	C744.697205,485.849976 744.796387,486.271576 744.895630,486.693176 
	C749.296814,485.738586 753.697937,484.783997 758.099121,483.829407 
	C760.424561,492.071167 762.750000,500.312958 765.308350,509.380310 
	C759.662476,509.867584 755.369934,510.238037 749.714905,510.726105 
	C751.455383,511.352814 751.767517,511.575623 752.063599,511.555939 
	C765.234863,510.681824 765.259155,510.678131 765.879578,523.767944 
	C766.012939,526.582336 765.899048,529.408386 765.899048,532.911499 
	C761.908325,532.911499 758.052795,532.911499 754.197327,532.911499 
	C754.198547,533.334106 754.199829,533.756714 754.201050,534.179321 
	C757.947754,534.179321 761.694458,534.179321 765.321411,534.179321 
	C767.266907,544.870422 764.944641,556.240112 761.677185,557.160278 
	C762.224182,558.402771 763.413757,559.785217 763.297058,561.046814 
	C762.308044,571.734375 758.422180,581.268738 755.984680,582.038635 
	C755.882019,583.971985 756.242249,585.628967 755.655396,586.818848 
	C752.713745,592.782654 749.524292,598.624146 745.852783,604.787842 
	C740.423401,603.317749 735.563232,601.568481 730.703064,599.819214 
	C730.568909,600.161255 730.434814,600.503235 730.300720,600.845215 
	C735.059143,602.942932 739.817566,605.040710 744.576050,607.138428 
M712.038940,467.472992 
	C705.442444,460.708374 699.544006,453.035919 692.130005,447.334381 
	C657.778809,420.917328 617.527161,411.856903 575.322021,408.971558 
	C571.002319,408.676300 570.021484,410.548981 569.997070,414.510956 
	C569.779541,449.818909 569.382324,485.125702 569.070374,520.433105 
	C568.992310,529.265564 569.087952,538.099548 569.006531,546.931885 
	C568.694885,580.739258 568.404541,614.547058 567.931885,648.352295 
	C567.871277,652.687195 569.139282,654.474365 573.598328,654.062988 
	C582.363586,653.254456 591.197449,653.054443 599.920593,651.951111 
	C627.377563,648.478394 653.837280,641.602722 678.192688,627.928589 
	C697.379639,617.156189 712.948608,602.727661 722.947632,582.913513 
	C731.166687,566.626465 733.644165,549.181091 733.115845,531.031311 
	C732.442749,507.905365 726.305786,486.753632 712.038940,467.472992 
z"/>
<path fill="#BF202F" opacity="1.000000" stroke="none" 
	d="
M750.220520,464.445221 
	C705.491638,453.489838 670.463684,428.551361 641.936768,393.223389 
	C632.391357,383.955261 633.527771,374.718567 640.296143,364.501556 
	C645.578186,356.528198 649.576965,347.704681 654.639648,338.346466 
	C693.808716,401.533295 752.375732,426.625336 824.284546,427.567627 
	C822.473083,431.000763 821.084839,433.748749 819.592285,436.438965 
	C814.756165,445.155975 809.773621,453.793732 805.062561,462.577393 
	C802.232483,467.853851 798.106262,470.682648 792.147583,469.953949 
	C778.304321,468.261017 764.490417,466.328491 750.220520,464.445221 
z"/>
<path fill="#DDA329" opacity="1.000000" stroke="none" 
	d="
M540.044373,445.924713 
	C540.225891,447.887329 540.563477,449.849823 540.565491,451.812622 
	C540.598511,483.452240 540.639893,515.091980 540.578918,546.731506 
	C540.412476,633.149109 540.202209,719.566528 539.999573,805.984070 
	C539.975342,816.307312 539.890503,826.630493 539.342041,837.438110 
	C534.559753,837.889160 530.269287,837.855774 525.982422,837.365967 
	C525.989868,823.084961 525.995422,809.260376 525.997253,795.435791 
	C526.012634,679.009521 526.027344,562.583252 526.501038,446.097839 
	C531.321411,446.000671 535.682861,445.962677 540.044373,445.924713 
z"/>
<path fill="#DDA329" opacity="1.000000" stroke="none" 
	d="
M494.260681,837.869263 
	C494.223450,836.871216 494.154022,835.873230 494.153656,834.875183 
	C494.104218,705.592041 494.059845,576.308838 494.510284,446.526428 
	C499.324249,446.065125 503.643188,446.103088 507.977478,446.599915 
	C508.002899,577.320862 508.013031,707.582886 507.561218,837.898743 
	C502.819763,837.924744 498.540192,837.896973 494.260681,837.869263 
z"/>
<path fill="#DF6B73" opacity="1.000000" stroke="none" 
	d="
M539.747620,858.048706 
	C539.789001,870.375305 539.913452,882.702454 539.839783,895.028381 
	C539.797241,902.148865 535.715881,906.146057 528.615417,906.186096 
	C521.121155,906.228455 513.623047,906.190308 506.131744,905.992004 
	C497.798096,905.771301 494.167358,901.927795 494.138641,893.461243 
	C494.099670,881.966248 494.148254,870.470947 494.651428,858.481384 
	C499.444153,857.860535 503.744720,857.734131 508.504822,857.686584 
	C514.628967,857.715393 520.293579,857.665283 526.418701,857.687378 
	C531.168640,857.855896 535.458130,857.952271 539.747620,858.048706 
z"/>
<path fill="#E1DBCF" opacity="1.000000" stroke="none" 
	d="
M507.962128,446.141052 
	C503.643188,446.103088 499.324249,446.065125 494.549072,446.065796 
	C498.587036,433.595764 503.081177,421.087128 508.250397,408.385803 
	C514.804504,408.132935 520.683594,408.072693 526.562683,408.012482 
	C531.039673,420.394958 535.516602,432.777405 540.018982,445.542297 
	C535.682861,445.962677 531.321411,446.000671 526.032593,446.046448 
	C519.390869,446.083191 513.676514,446.112152 507.962128,446.141052 
z"/>
<path fill="#C0BCBA" opacity="1.000000" stroke="none" 
	d="
M508.045319,857.607727 
	C503.744720,857.734131 499.444153,857.860535 494.697906,858.018066 
	C494.221405,851.636963 494.190582,845.224854 494.210205,838.341003 
	C498.540192,837.896973 502.819763,837.924744 507.541443,837.992065 
	C507.983551,838.031677 507.970184,838.222046 507.978210,838.674927 
	C508.005951,845.287720 508.025635,851.447754 508.045319,857.607727 
z"/>
<path fill="#C0BCBA" opacity="1.000000" stroke="none" 
	d="
M539.807373,857.584106 
	C535.458130,857.952271 531.168640,857.855896 526.425903,857.250000 
	C525.995117,850.563538 526.017578,844.386536 526.031189,838.111694 
	C526.022339,838.013916 525.978760,837.822449 525.978760,837.822388 
	C530.269287,837.855774 534.559753,837.889160 539.295471,837.896301 
	C539.782837,844.286560 539.824951,850.703064 539.807373,857.584106 
z"/>
<path fill="#535755" opacity="1.000000" stroke="none" 
	d="
M526.501160,407.611969 
	C520.683594,408.072693 514.804504,408.132935 508.465698,408.096771 
	C510.933563,399.791077 513.861145,391.581757 517.259338,382.052917 
	C520.643860,391.328186 523.541748,399.269806 526.501160,407.611969 
z"/>
<path fill="#C1E8F9" opacity="1.000000" stroke="none" 
	d="
M744.806885,607.009644 
	C739.817566,605.040710 735.059143,602.942932 730.300720,600.845215 
	C730.434814,600.503235 730.568909,600.161255 730.703064,599.819214 
	C735.563232,601.568481 740.423401,603.317749 745.669495,605.078125 
	C745.716248,605.686401 745.377014,606.283630 744.806885,607.009644 
z"/>
<path fill="#BAE6F8" opacity="1.000000" stroke="none" 
	d="
M758.084656,483.595825 
	C753.697937,484.783997 749.296814,485.738586 744.895630,486.693176 
	C744.796387,486.271576 744.697205,485.849976 744.597961,485.428375 
	C748.636230,484.383606 752.674561,483.338806 757.111389,482.194824 
	C757.696655,482.517853 757.883423,482.940063 758.084656,483.595825 
z"/>
<path fill="#76D1F2" opacity="1.000000" stroke="none" 
	d="
M712.271118,467.743530 
	C726.305786,486.753632 732.442749,507.905365 733.115845,531.031311 
	C733.644165,549.181091 731.166687,566.626465 722.947632,582.913513 
	C712.948608,602.727661 697.379639,617.156189 678.192688,627.928589 
	C653.837280,641.602722 627.377563,648.478394 599.920593,651.951111 
	C591.197449,653.054443 582.363586,653.254456 573.598328,654.062988 
	C569.139282,654.474365 567.871277,652.687195 567.931885,648.352295 
	C568.404541,614.547058 568.694885,580.739258 569.006531,546.931885 
	C569.087952,538.099548 568.992310,529.265564 569.070374,520.433105 
	C569.382324,485.125702 569.779541,449.818909 569.997070,414.510956 
	C570.021484,410.548981 571.002319,408.676300 575.322021,408.971558 
	C617.527161,411.856903 657.778809,420.917328 692.130005,447.334381 
	C699.544006,453.035919 705.442444,460.708374 712.271118,467.743530 
M608.106384,633.747803 
	C631.641846,629.126648 653.980286,621.567810 674.557434,608.806335 
	C733.027588,572.544800 733.448547,484.027832 671.553223,449.461121 
	C651.629944,438.334534 630.399963,431.582092 608.043335,428.039276 
	C599.268799,426.648773 590.383911,425.955048 581.237427,424.908325 
	C581.237427,496.090912 581.237427,566.269775 581.237427,637.383667 
	C590.233765,636.176880 598.745117,635.035095 608.106384,633.747803 
z"/>
<path fill="#E4B049" opacity="1.000000" stroke="none" 
	d="
M507.977478,446.599915 
	C513.676514,446.112152 519.390869,446.083191 525.573730,446.105621 
	C526.027344,562.583252 526.012634,679.009521 525.997253,795.435791 
	C525.995422,809.260376 525.989868,823.084961 525.982422,837.365967 
	C525.978760,837.822449 526.022339,838.013916 525.565308,838.043091 
	C519.395630,838.122192 513.682922,838.172119 507.970184,838.222046 
	C507.970184,838.222046 507.983551,838.031677 508.003357,837.938354 
	C508.013031,707.582886 508.002899,577.320862 507.977478,446.599915 
z"/>
<path fill="#CDD3C2" opacity="1.000000" stroke="none" 
	d="
M507.978210,838.674866 
	C513.682922,838.172119 519.395630,838.122192 525.574219,838.140869 
	C526.017578,844.386536 525.995117,850.563538 525.965454,857.177917 
	C520.293579,857.665283 514.628967,857.715393 508.504822,857.686584 
	C508.025635,851.447754 508.005951,845.287720 507.978210,838.674866 
z"/>
<path fill="#FFFFFF" opacity="1.000000" stroke="none" 
	d="
M607.681396,633.820557 
	C598.745117,635.035095 590.233765,636.176880 581.237427,637.383667 
	C581.237427,566.269775 581.237427,496.090912 581.237427,424.908325 
	C590.383911,425.955048 599.268799,426.648773 608.043335,428.039276 
	C630.399963,431.582092 651.629944,438.334534 671.553223,449.461121 
	C733.448547,484.027832 733.027588,572.544800 674.557434,608.806335 
	C653.980286,621.567810 631.641846,629.126648 607.681396,633.820557 
z"/>
</svg>