<svg version="1.1" id="Layer_1" xmlns="http://www.w3.org/2000/svg" xmlns:xlink="http://www.w3.org/1999/xlink" x="0px" y="0px"
	 width="100%" viewBox="0 0 500 499" enable-background="new 0 0 500 499" xml:space="preserve">
<path fill="#BF1F2F" opacity="1.000000" stroke="none" 
	d="
M1.000000,243.000000 
	C1.000000,237.311966 1.000000,231.623917 1.419146,225.563477 
	C2.592725,220.091736 2.870688,214.865524 4.188709,209.916290 
	C8.579148,193.430023 12.705294,176.829315 18.124039,160.671997 
	C24.964582,140.275269 35.719772,121.700684 48.401371,104.383926 
	C55.517479,94.666840 63.089882,85.155922 71.450302,76.513268 
	C80.204147,67.463905 89.630692,58.876205 99.693207,51.326210 
	C114.723579,40.048771 130.809402,30.386692 148.182053,22.820858 
	C169.919479,13.354148 192.251022,6.482829 215.842804,3.770715 
	C217.315247,3.601442 218.618195,1.957732 220.000000,0.999999 
	C220.444443,1.000000 220.888901,1.000000 221.535309,1.377189 
	C223.485672,3.353544 225.138199,4.410818 226.000000,1.000000 
	C231.022095,1.000000 236.044189,1.000000 241.813232,1.313035 
	C248.373459,1.417379 254.186737,1.208690 260.000000,1.000000 
	C264.356903,1.000000 268.713806,1.000000 273.416870,1.374369 
	C274.418396,2.156664 275.071564,2.917044 275.729431,2.921121 
	C293.451569,3.030958 310.419495,7.621737 327.057770,12.800976 
	C342.893188,17.730305 358.069031,24.525061 372.702240,32.685680 
	C390.987091,42.882767 407.765839,55.024834 422.702698,69.448776 
	C433.310669,79.692467 442.963593,91.076675 451.979645,102.771477 
	C459.769806,112.876129 466.792938,123.745300 472.805389,134.997711 
	C478.604919,145.851517 483.586121,157.342270 487.275940,169.072495 
	C491.764771,183.342682 494.478882,198.167877 498.077637,212.724075 
	C498.776459,215.550781 500.012024,218.244781 501.000000,221.000000 
	C501.000000,229.020905 501.000000,237.041809 500.695404,245.789093 
	C500.593872,249.343658 500.796936,252.171829 501.000000,255.000000 
	C501.000000,263.354218 501.000000,271.708466 500.589783,280.427795 
	C499.789337,281.629425 499.234375,282.428284 499.033386,283.308044 
	C495.462524,298.936279 492.762390,314.821838 488.180542,330.145386 
	C482.883759,347.859802 475.383820,364.899628 464.843414,380.215576 
	C455.383392,393.961609 445.746124,407.708984 434.886047,420.336884 
	C421.472473,435.933990 405.245636,448.673157 388.090118,460.030457 
	C373.656647,469.585724 358.212646,477.329498 342.018188,483.464844 
	C325.417908,489.753906 308.493317,494.880035 290.787720,497.138763 
	C288.113678,497.479919 285.592102,499.016388 283.000000,500.000000 
	C282.250000,500.000000 281.500000,500.000000 280.584900,499.704987 
	C280.019684,499.128204 279.619568,498.846436 279.219452,498.564667 
	C279.146301,499.043121 279.073151,499.521545 279.000000,500.000000 
	C273.977905,500.000000 268.955811,500.000000 263.251343,499.693298 
	C261.076233,499.288483 259.583435,499.190338 257.620331,499.064667 
	C252.736740,499.054688 248.323486,499.072235 243.529510,499.070312 
	C241.765854,499.367218 240.382919,499.683624 239.000000,500.000000 
	C233.977905,500.000000 228.955811,500.000000 223.676788,499.705017 
	C223.019714,499.128235 222.619583,498.846466 222.219452,498.564697 
	C222.146301,499.043121 222.073151,499.521576 222.000000,500.000000 
	C221.250000,500.000000 220.500000,500.000000 219.518066,499.640228 
	C217.523636,498.687439 215.799011,497.756561 213.992722,497.554108 
	C197.165924,495.667908 180.915710,491.161835 165.138031,485.419189 
	C145.082474,478.119568 126.017700,468.587982 108.555702,456.086792 
	C92.867310,444.855347 78.209114,432.618988 65.295860,418.097900 
	C54.148418,405.562500 43.744007,392.518524 35.695202,377.947174 
	C27.917068,363.865875 20.742271,349.241882 15.291777,334.138397 
	C8.778840,316.090820 4.180382,297.325989 2.906978,277.968231 
	C2.861269,277.273346 1.661767,276.654358 0.999998,276.000000 
	C1.000000,270.311951 1.000000,264.623932 1.347466,258.223724 
	C1.463289,252.674377 1.231644,247.837189 1.000000,243.000000 
M109.547287,391.071777 
	C114.238380,395.394043 118.528282,400.286591 123.700294,403.925293 
	C136.209625,412.726044 148.601273,421.936707 162.047440,429.088837 
	C173.461090,435.159912 186.064560,439.338226 198.546982,442.954742 
	C209.997192,446.272247 221.917374,449.023407 233.759888,449.676147 
	C250.260269,450.585541 266.985718,451.171326 283.328827,446.942871 
	C295.154785,443.883179 307.313538,441.824585 318.808014,437.833710 
	C337.317932,431.407013 354.527039,422.129059 369.959076,409.891388 
	C377.384979,404.002533 384.929871,398.169678 391.690704,391.564148 
	C397.808868,385.586578 402.801636,378.474335 408.522675,372.069702 
	C424.624542,354.043854 434.525299,332.552582 441.676910,309.950836 
	C448.776978,287.511963 451.665497,264.347015 450.208130,240.560349 
	C449.044861,221.574448 445.878326,203.209412 439.616852,185.298294 
	C433.812500,168.694855 425.863281,153.104065 415.950775,138.701950 
	C404.186859,121.609909 389.728180,106.916191 373.467194,93.866402 
	C353.586761,77.911964 331.333923,66.558846 307.162201,59.317566 
	C287.157349,53.324581 266.526917,51.069633 245.419403,51.759457 
	C225.728500,52.402985 206.838455,55.757309 188.175247,61.813202 
	C162.217361,70.236092 139.299377,83.896378 118.989815,101.770889 
	C105.304398,113.815468 93.326431,127.527000 83.381592,143.030426 
	C74.571228,156.765259 67.659470,171.367599 62.369865,186.634384 
	C57.046730,201.997940 53.865688,217.868469 52.726315,234.302856 
	C51.379028,253.736343 51.650997,272.962219 56.170971,291.831055 
	C59.193016,304.446716 63.159103,316.980103 68.170914,328.934753 
	C73.168419,340.855255 79.142349,352.574890 86.274803,363.330414 
	C92.770988,373.126526 101.395836,381.511047 109.547287,391.071777 
z"/>
<path fill="#000000" opacity="1.000000" stroke="none" 
	d="
M501.000000,220.531342 
	C500.012024,218.244781 498.776459,215.550781 498.077637,212.724075 
	C494.478882,198.167877 491.764771,183.342682 487.275940,169.072495 
	C483.586121,157.342270 478.604919,145.851517 472.805389,134.997711 
	C466.792938,123.745300 459.769806,112.876129 451.979645,102.771477 
	C442.963593,91.076675 433.310669,79.692467 422.702698,69.448776 
	C407.765839,55.024834 390.987091,42.882767 372.702240,32.685680 
	C358.069031,24.525061 342.893188,17.730305 327.057770,12.800976 
	C310.419495,7.621737 293.451569,3.030958 275.729431,2.921121 
	C275.071564,2.917044 274.418396,2.156664 273.881531,1.374369 
	C349.592560,1.000000 425.185120,1.000000 501.000000,1.000000 
	C501.000000,74.020744 501.000000,147.041718 501.000000,220.531342 
z"/>
<path fill="#000000" opacity="1.000000" stroke="none" 
	d="
M219.531342,0.999999 
	C218.618195,1.957732 217.315247,3.601442 215.842804,3.770715 
	C192.251022,6.482829 169.919479,13.354148 148.182053,22.820858 
	C130.809402,30.386692 114.723579,40.048771 99.693207,51.326210 
	C89.630692,58.876205 80.204147,67.463905 71.450302,76.513268 
	C63.089882,85.155922 55.517479,94.666840 48.401371,104.383926 
	C35.719772,121.700684 24.964582,140.275269 18.124039,160.671997 
	C12.705294,176.829315 8.579148,193.430023 4.188709,209.916290 
	C2.870688,214.865524 2.592725,220.091736 1.419146,225.095520 
	C1.000000,150.407120 1.000000,75.814224 1.000000,1.000000 
	C73.687408,1.000000 146.375046,1.000000 219.531342,0.999999 
z"/>
<path fill="#000000" opacity="1.000000" stroke="none" 
	d="
M0.999998,276.468658 
	C1.661767,276.654358 2.861269,277.273346 2.906978,277.968231 
	C4.180382,297.325989 8.778840,316.090820 15.291777,334.138397 
	C20.742271,349.241882 27.917068,363.865875 35.695202,377.947174 
	C43.744007,392.518524 54.148418,405.562500 65.295860,418.097900 
	C78.209114,432.618988 92.867310,444.855347 108.555702,456.086792 
	C126.017700,468.587982 145.082474,478.119568 165.138031,485.419189 
	C180.915710,491.161835 197.165924,495.667908 213.992722,497.554108 
	C215.799011,497.756561 217.523636,498.687439 219.143066,499.640228 
	C146.405304,500.000000 73.810623,500.000000 1.000000,500.000000 
	C1.000000,425.645905 1.000000,351.291626 0.999998,276.468658 
z"/>
<path fill="#000000" opacity="1.000000" stroke="none" 
	d="
M283.468658,500.000000 
	C285.592102,499.016388 288.113678,497.479919 290.787720,497.138763 
	C308.493317,494.880035 325.417908,489.753906 342.018188,483.464844 
	C358.212646,477.329498 373.656647,469.585724 388.090118,460.030457 
	C405.245636,448.673157 421.472473,435.933990 434.886047,420.336884 
	C445.746124,407.708984 455.383392,393.961609 464.843414,380.215576 
	C475.383820,364.899628 482.883759,347.859802 488.180542,330.145386 
	C492.762390,314.821838 495.462524,298.936279 499.033386,283.308044 
	C499.234375,282.428284 499.789337,281.629425 500.589783,280.896423 
	C501.000000,353.926849 501.000000,426.853729 501.000000,500.000000 
	C428.645935,500.000000 356.291626,500.000000 283.468658,500.000000 
z"/>
<path fill="#CA4553" opacity="1.000000" stroke="none" 
	d="
M259.532043,1.000000 
	C254.186737,1.208690 248.373459,1.417379 242.280090,1.313035 
	C247.688034,1.000000 253.376083,1.000000 259.532043,1.000000 
z"/>
<path fill="#DC8790" opacity="1.000000" stroke="none" 
	d="
M1.000000,243.466125 
	C1.231644,247.837189 1.463289,252.674377 1.347466,257.755798 
	C1.000000,253.310745 1.000000,248.621490 1.000000,243.466125 
z"/>
<path fill="#C63947" opacity="1.000000" stroke="none" 
	d="
M243.910233,499.089783 
	C248.323486,499.072235 252.736740,499.054688 257.592163,499.290710 
	C258.034332,499.544281 258.000000,500.000000 258.000000,500.000000 
	C253.643097,500.000000 249.286194,500.000000 244.447708,499.771912 
	C243.966125,499.543793 243.910233,499.089783 243.910233,499.089783 
z"/>
<path fill="#CF5763" opacity="1.000000" stroke="none" 
	d="
M501.000000,254.550018 
	C500.796936,252.171829 500.593872,249.343658 500.695404,246.257751 
	C501.000000,248.700012 501.000000,251.400024 501.000000,254.550018 
z"/>
<path fill="#000000" opacity="1.000000" stroke="none" 
	d="
M225.600006,1.000000 
	C225.138199,4.410818 223.485672,3.353544 221.868622,1.377189 
	C223.066666,1.000000 224.133347,1.000000 225.600006,1.000000 
z"/>
<path fill="#D1606B" opacity="1.000000" stroke="none" 
	d="
M243.529510,499.070312 
	C243.910233,499.089783 243.966125,499.543793 243.983063,499.771912 
	C242.611115,500.000000 241.222214,500.000000 239.416656,500.000000 
	C240.382919,499.683624 241.765854,499.367218 243.529510,499.070312 
z"/>
<path fill="#D1606B" opacity="1.000000" stroke="none" 
	d="
M258.416656,500.000000 
	C258.000000,500.000000 258.034332,499.544281 258.062500,499.318237 
	C259.583435,499.190338 261.076233,499.288483 262.784485,499.693298 
	C261.611115,500.000000 260.222198,500.000000 258.416656,500.000000 
z"/>
<path fill="#000000" opacity="1.000000" stroke="none" 
	d="
M222.250000,500.000000 
	C222.073151,499.521576 222.146301,499.043121 222.219452,498.564697 
	C222.619583,498.846466 223.019714,499.128235 223.209930,499.705017 
	C223.000000,500.000000 222.500000,500.000000 222.250000,500.000000 
z"/>
<path fill="#000000" opacity="1.000000" stroke="none" 
	d="
M279.250000,500.000000 
	C279.073151,499.521545 279.146301,499.043121 279.219452,498.564667 
	C279.619568,498.846436 280.019684,499.128204 280.209900,499.704987 
	C280.000000,500.000000 279.500000,500.000000 279.250000,500.000000 
z"/>
<path fill="#000000" opacity="1.000000" stroke="none" 
	d="
M109.314857,390.794769 
	C101.395836,381.511047 92.770988,373.126526 86.274803,363.330414 
	C79.142349,352.574890 73.168419,340.855255 68.170914,328.934753 
	C63.159103,316.980103 59.193016,304.446716 56.170971,291.831055 
	C51.650997,272.962219 51.379028,253.736343 52.726315,234.302856 
	C53.865688,217.868469 57.046730,201.997940 62.369865,186.634384 
	C67.659470,171.367599 74.571228,156.765259 83.381592,143.030426 
	C93.326431,127.527000 105.304398,113.815468 118.989815,101.770889 
	C139.299377,83.896378 162.217361,70.236092 188.175247,61.813202 
	C206.838455,55.757309 225.728500,52.402985 245.419403,51.759457 
	C266.526917,51.069633 287.157349,53.324581 307.162201,59.317566 
	C331.333923,66.558846 353.586761,77.911964 373.467194,93.866402 
	C389.728180,106.916191 404.186859,121.609909 415.950775,138.701950 
	C425.863281,153.104065 433.812500,168.694855 439.616852,185.298294 
	C445.878326,203.209412 449.044861,221.574448 450.208130,240.560349 
	C451.665497,264.347015 448.776978,287.511963 441.676910,309.950836 
	C434.525299,332.552582 424.624542,354.043854 408.522675,372.069702 
	C402.801636,378.474335 397.808868,385.586578 391.690704,391.564148 
	C384.929871,398.169678 377.384979,404.002533 369.959076,409.891388 
	C354.527039,422.129059 337.317932,431.407013 318.808014,437.833710 
	C307.313538,441.824585 295.154785,443.883179 283.328827,446.942871 
	C266.985718,451.171326 250.260269,450.585541 233.759888,449.676147 
	C221.917374,449.023407 209.997192,446.272247 198.546982,442.954742 
	C186.064560,439.338226 173.461090,435.159912 162.047440,429.088837 
	C148.601273,421.936707 136.209625,412.726044 123.700294,403.925293 
	C118.528282,400.286591 114.238380,395.394043 109.314857,390.794769 
M107.997932,376.403931 
	C115.719864,383.656464 123.121849,391.294525 131.258636,398.047180 
	C138.599136,404.139038 146.271332,410.151337 154.646393,414.600159 
	C166.715546,421.011261 179.199005,427.074890 192.161667,431.250122 
	C205.230438,435.459534 219.004791,438.781860 232.643173,439.597656 
	C250.717438,440.678802 268.950287,441.007568 287.100861,437.244202 
	C303.950348,433.750549 319.991394,428.406708 335.388123,421.043549 
	C349.256134,414.411469 362.417450,406.384857 373.582947,395.758820 
	C384.132111,385.719330 394.772766,375.548767 403.780212,364.174377 
	C414.926636,350.098877 423.238403,334.097015 429.467926,317.117004 
	C436.371857,298.298553 440.582397,278.943939 440.910522,258.889130 
	C441.067474,249.292725 440.567932,239.667450 439.941528,230.082977 
	C439.546844,224.043121 439.069977,217.850449 437.395996,212.084564 
	C433.643860,199.160477 429.876373,186.143066 424.680389,173.765976 
	C420.299347,163.330261 414.630280,153.239120 408.216187,143.898560 
	C398.336670,129.511398 386.966980,116.134674 372.903351,105.593910 
	C361.975677,97.403580 350.745544,89.451645 338.917755,82.670692 
	C325.259186,74.840118 310.389771,69.689194 294.881439,66.273865 
	C280.556946,63.119251 266.170685,61.152435 251.534515,61.059677 
	C247.609177,61.034801 243.625412,62.235313 239.762543,61.872299 
	C228.760452,60.838360 218.108093,63.144779 207.779816,65.886948 
	C194.756393,69.344658 182.066757,74.198730 169.453812,79.026947 
	C154.761322,84.651222 141.945404,93.855721 130.155014,103.843193 
	C119.194412,113.127777 109.628937,124.239891 100.422333,135.353516 
	C93.862457,143.272171 88.322502,152.201660 83.361435,161.247177 
	C69.451859,186.608536 62.473392,214.101379 61.208786,242.854507 
	C60.674145,255.010498 61.348259,267.413208 63.197662,279.438507 
	C66.604912,301.593353 73.098053,323.081970 84.363731,342.551819 
	C91.117126,354.223328 99.948532,364.692444 107.997932,376.403931 
z"/>
<path fill="#C02332" opacity="1.000000" stroke="none" 
	d="
M107.921951,376.052979 
	C99.948532,364.692444 91.117126,354.223328 84.363731,342.551819 
	C73.098053,323.081970 66.604912,301.593353 63.197662,279.438507 
	C61.348259,267.413208 60.674145,255.010498 61.208786,242.854507 
	C62.473392,214.101379 69.451859,186.608536 83.361435,161.247177 
	C88.322502,152.201660 93.862457,143.272171 100.422333,135.353516 
	C109.628937,124.239891 119.194412,113.127777 130.155014,103.843193 
	C141.945404,93.855721 154.761322,84.651222 169.453812,79.026947 
	C182.066757,74.198730 194.756393,69.344658 207.779816,65.886948 
	C218.108093,63.144779 228.760452,60.838360 239.762543,61.872299 
	C243.625412,62.235313 247.609177,61.034801 251.534515,61.059677 
	C266.170685,61.152435 280.556946,63.119251 294.881439,66.273865 
	C310.389771,69.689194 325.259186,74.840118 338.917755,82.670692 
	C350.745544,89.451645 361.975677,97.403580 372.903351,105.593910 
	C386.966980,116.134674 398.336670,129.511398 408.216187,143.898560 
	C414.630280,153.239120 420.299347,163.330261 424.680389,173.765976 
	C429.876373,186.143066 433.643860,199.160477 437.395996,212.084564 
	C439.069977,217.850449 439.546844,224.043121 439.941528,230.082977 
	C440.567932,239.667450 441.067474,249.292725 440.910522,258.889130 
	C440.582397,278.943939 436.371857,298.298553 429.467926,317.117004 
	C423.238403,334.097015 414.926636,350.098877 403.780212,364.174377 
	C394.772766,375.548767 384.132111,385.719330 373.582947,395.758820 
	C362.417450,406.384857 349.256134,414.411469 335.388123,421.043549 
	C319.991394,428.406708 303.950348,433.750549 287.100861,437.244202 
	C268.950287,441.007568 250.717438,440.678802 232.643173,439.597656 
	C219.004791,438.781860 205.230438,435.459534 192.161667,431.250122 
	C179.199005,427.074890 166.715546,421.011261 154.646393,414.600159 
	C146.271332,410.151337 138.599136,404.139038 131.258636,398.047180 
	C123.121849,391.294525 115.719864,383.656464 107.921951,376.052979 
M288.143219,426.460754 
	C292.224304,425.594879 296.401215,425.039185 300.371094,423.813232 
	C327.824036,415.335510 352.147369,401.383148 373.640503,382.266846 
	C383.928833,373.116241 392.452728,362.522247 400.052246,351.256531 
	C405.868408,342.634399 410.682770,333.274841 415.328583,323.937714 
	C424.850769,304.800079 429.565247,284.172119 430.725128,263.049164 
	C431.500458,248.929001 430.677765,234.514923 428.690308,220.498947 
	C425.910522,200.895325 418.982971,182.290771 409.280762,165.031738 
	C394.841766,139.346436 375.733673,117.717163 350.928741,101.403488 
	C336.777496,92.096527 321.829102,84.750053 305.578979,79.570107 
	C288.267548,74.051857 270.773468,70.969559 252.688095,71.040520 
	C247.086166,71.062492 241.436203,71.281960 235.896210,72.047577 
	C224.608536,73.607513 213.121292,74.654549 202.193161,77.651733 
	C188.214767,81.485504 175.021973,87.536720 162.219940,94.687729 
	C149.367249,101.867050 137.937775,110.713303 127.221115,120.480537 
	C115.232613,131.406937 104.958519,144.047867 97.131836,158.270386 
	C90.773773,169.824127 84.638832,181.725891 80.398621,194.153534 
	C76.519539,205.522705 75.500221,217.845108 72.882874,229.672684 
	C69.161102,246.491043 70.977585,263.374634 73.388023,279.939331 
	C75.704361,295.857269 80.935181,311.174072 87.747910,326.022003 
	C98.472038,349.394592 113.535248,369.139038 132.646957,386.155945 
	C148.624939,400.382568 166.693054,411.117676 186.453720,418.846741 
	C201.558670,424.754822 217.359940,428.588409 233.603729,429.912659 
	C241.834412,430.583679 250.162842,431.202209 258.373077,430.680267 
	C268.124146,430.060303 277.795593,428.188477 288.143219,426.460754 
z"/>
<path fill="#000000" opacity="1.000000" stroke="none" 
	d="
M287.822388,426.659973 
	C277.795593,428.188477 268.124146,430.060303 258.373077,430.680267 
	C250.162842,431.202209 241.834412,430.583679 233.603729,429.912659 
	C217.359940,428.588409 201.558670,424.754822 186.453720,418.846741 
	C166.693054,411.117676 148.624939,400.382568 132.646957,386.155945 
	C113.535248,369.139038 98.472038,349.394592 87.747910,326.022003 
	C80.935181,311.174072 75.704361,295.857269 73.388023,279.939331 
	C70.977585,263.374634 69.161102,246.491043 72.882874,229.672684 
	C75.500221,217.845108 76.519539,205.522705 80.398621,194.153534 
	C84.638832,181.725891 90.773773,169.824127 97.131836,158.270386 
	C104.958519,144.047867 115.232613,131.406937 127.221115,120.480537 
	C137.937775,110.713303 149.367249,101.867050 162.219940,94.687729 
	C175.021973,87.536720 188.214767,81.485504 202.193161,77.651733 
	C213.121292,74.654549 224.608536,73.607513 235.896210,72.047577 
	C241.436203,71.281960 247.086166,71.062492 252.688095,71.040520 
	C270.773468,70.969559 288.267548,74.051857 305.578979,79.570107 
	C321.829102,84.750053 336.777496,92.096527 350.928741,101.403488 
	C375.733673,117.717163 394.841766,139.346436 409.280762,165.031738 
	C418.982971,182.290771 425.910522,200.895325 428.690308,220.498947 
	C430.677765,234.514923 431.500458,248.929001 430.725128,263.049164 
	C429.565247,284.172119 424.850769,304.800079 415.328583,323.937714 
	C410.682770,333.274841 405.868408,342.634399 400.052246,351.256531 
	C392.452728,362.522247 383.928833,373.116241 373.640503,382.266846 
	C352.147369,401.383148 327.824036,415.335510 300.371094,423.813232 
	C296.401215,425.039185 292.224304,425.594879 287.822388,426.659973 
M205.784500,349.743347 
	C205.861847,356.704285 205.887436,363.666443 206.057358,370.625122 
	C206.094269,372.136627 206.648590,373.635468 206.977905,375.951355 
	C209.429901,378.290863 222.056870,379.034149 224.477905,376.898560 
	C224.886551,376.538116 224.877075,375.703644 225.831009,374.664276 
	C225.834091,365.783234 225.837173,356.902222 225.973770,347.119934 
	C225.931458,344.089203 225.889145,341.058441 226.003464,337.093140 
	C225.972015,319.630829 225.940582,302.168518 226.043869,284.494507 
	C226.043869,284.494507 225.954315,284.260101 226.523117,283.972290 
	C227.017105,283.594269 227.511093,283.216248 228.505142,282.981262 
	C228.671707,282.933136 228.838272,282.884979 229.874130,282.979034 
	C232.735886,282.920502 235.610077,283.011841 238.457092,282.775665 
	C247.390900,282.034485 256.370544,281.552765 265.227753,280.255951 
	C276.203369,278.648987 286.347321,274.254791 295.777435,268.574310 
	C304.694427,263.202942 311.258148,255.525391 315.628662,245.922180 
	C320.702179,234.774246 320.796478,223.177628 319.079742,211.474213 
	C318.272705,205.972458 316.408203,200.625824 315.788177,195.047562 
	C321.144806,195.369904 326.499969,195.862991 331.858917,195.907867 
	C333.413696,195.920898 335.689209,195.082428 336.414001,193.891602 
	C339.189056,189.332108 341.467346,184.470291 344.118530,179.360001 
	C329.906311,178.024750 316.152802,176.407410 303.625854,169.845398 
	C291.169403,163.320312 280.790527,154.516556 273.581238,140.909576 
	C269.725220,148.562820 264.166138,154.318329 264.040741,162.941650 
	C252.415619,162.291428 240.790482,161.641205 228.761154,160.293488 
	C228.507492,161.628586 228.052292,162.960876 228.033539,164.299271 
	C227.927795,171.851151 227.926834,179.404526 227.283447,186.804901 
	C226.868149,186.156464 226.452850,185.508026 225.741867,184.159622 
	C223.872345,179.704422 222.002823,175.249207 220.136871,170.026993 
	C218.986618,166.807480 217.836349,163.587967 216.257492,159.168854 
	C214.473953,163.853073 213.159317,167.305756 211.212997,171.173172 
	C209.519455,176.123840 207.825912,181.074493 206.013702,186.950012 
	C206.061813,218.966583 206.109940,250.983154 206.015244,283.928253 
	C206.064728,305.624023 206.114212,327.319763 205.784500,349.743347 
M334.446014,205.023071 
	C333.285675,207.352768 332.222229,209.737320 330.941406,211.998795 
	C329.182251,215.104919 329.722595,217.161438 333.123657,218.663589 
	C336.130096,219.991455 338.884735,221.881668 341.867035,223.274033 
	C344.745911,224.618088 347.552673,225.085068 349.032013,221.141006 
	C349.667450,219.446823 350.440338,217.761154 351.423004,216.248474 
	C354.197937,211.976913 357.399078,208.014084 354.390778,202.314377 
	C353.731750,201.065735 354.987671,198.574768 355.778107,196.846313 
	C357.006866,194.159210 358.606232,191.642715 360.024109,189.040634 
	C363.132629,183.335999 366.225861,177.623062 369.325348,171.913498 
	C369.615631,172.468658 369.905914,173.023819 370.196198,173.578979 
	C373.512878,172.629593 377.503174,172.513412 379.972992,170.516586 
	C382.953796,168.106583 379.533478,165.295273 377.915405,163.464981 
	C365.682251,149.627350 353.199890,136.010452 340.865814,122.261444 
	C336.414978,117.300056 331.052551,114.081993 324.476654,112.987724 
	C320.541565,112.332893 316.587006,111.789673 312.633606,111.251801 
	C305.501312,110.281418 298.369019,109.307022 291.226227,108.418709 
	C283.205322,107.421196 275.186035,106.366722 267.137695,105.659523 
	C264.554962,105.432579 261.882202,106.230255 259.250610,106.559166 
	C259.865265,109.553810 259.691437,113.077293 261.267487,115.427116 
	C264.083160,119.625153 268.012024,123.064873 271.371704,126.912308 
	C277.278717,133.676895 283.002930,140.603760 289.003143,147.283524 
	C293.573547,152.371506 297.945679,157.840942 303.308533,161.967865 
	C312.209991,168.817856 323.471558,167.149216 333.812225,168.616196 
	C341.795929,169.748779 349.850861,170.378922 358.831146,171.334259 
	C354.189331,180.253571 350.014282,188.367493 345.702057,196.407837 
	C345.309357,197.140060 343.973938,197.897827 343.182190,197.798569 
	C338.067780,197.157669 336.537415,200.806229 334.446014,205.023071 
z"/>
<path fill="#C02030" opacity="1.000000" stroke="none" 
	d="
M334.665833,204.706360 
	C336.537415,200.806229 338.067780,197.157669 343.182190,197.798569 
	C343.973938,197.897827 345.309357,197.140060 345.702057,196.407837 
	C350.014282,188.367493 354.189331,180.253571 358.831146,171.334259 
	C349.850861,170.378922 341.795929,169.748779 333.812225,168.616196 
	C323.471558,167.149216 312.209991,168.817856 303.308533,161.967865 
	C297.945679,157.840942 293.573547,152.371506 289.003143,147.283524 
	C283.002930,140.603760 277.278717,133.676895 271.371704,126.912308 
	C268.012024,123.064873 264.083160,119.625153 261.267487,115.427116 
	C259.691437,113.077293 259.865265,109.553810 259.250610,106.559158 
	C261.882202,106.230255 264.554962,105.432579 267.137695,105.659523 
	C275.186035,106.366722 283.205322,107.421196 291.226227,108.418709 
	C298.369019,109.307022 305.501312,110.281418 312.633606,111.251801 
	C316.587006,111.789673 320.541565,112.332893 324.476654,112.987724 
	C331.052551,114.081993 336.414978,117.300056 340.865814,122.261444 
	C353.199890,136.010452 365.682251,149.627350 377.915405,163.464981 
	C379.533478,165.295273 382.953796,168.106583 379.972992,170.516586 
	C377.503174,172.513412 373.512878,172.629593 370.196198,173.578979 
	C369.905914,173.023819 369.615631,172.468658 369.325348,171.913498 
	C366.225861,177.623062 363.132629,183.335999 360.024109,189.040634 
	C358.606232,191.642715 357.006866,194.159210 355.778107,196.846313 
	C354.987671,198.574768 353.731750,201.065735 354.390778,202.314377 
	C357.399078,208.014084 354.197937,211.976913 351.423004,216.248474 
	C350.440338,217.761154 349.667450,219.446823 349.032013,221.141006 
	C347.552673,225.085068 344.745911,224.618088 341.867035,223.274033 
	C338.884735,221.881668 336.130096,219.991455 333.123657,218.663589 
	C329.722595,217.161438 329.182251,215.104919 330.941406,211.998795 
	C332.222229,209.737320 333.285675,207.352768 334.665833,204.706360 
z"/>
<path fill="#43C7EE" opacity="1.000000" stroke="none" 
	d="
M229.165375,160.990982 
	C240.790482,161.641205 252.415619,162.291428 264.808411,162.977051 
	C267.180878,164.353470 268.835571,165.639648 270.381439,167.045471 
	C275.516541,171.715378 280.024841,177.410919 285.858154,180.899506 
	C295.119781,186.438354 305.256409,190.514175 315.022888,195.208893 
	C316.408203,200.625824 318.272705,205.972458 319.079742,211.474213 
	C320.796478,223.177628 320.702179,234.774246 315.628662,245.922180 
	C311.258148,255.525391 304.694427,263.202942 295.777435,268.574310 
	C286.347321,274.254791 276.203369,278.648987 265.227753,280.255951 
	C256.370544,281.552765 247.390900,282.034485 238.457092,282.775665 
	C235.610077,283.011841 232.735886,282.920502 229.417053,282.693573 
	C228.959961,282.408112 228.805817,282.005463 228.856415,281.558319 
	C228.867493,278.416412 228.827972,275.721649 228.866730,272.561890 
	C228.892822,258.389038 228.840637,244.681137 228.845917,230.509689 
	C228.865067,215.706573 228.826752,201.367020 228.866699,186.562469 
	C229.018448,177.728638 229.091904,169.359802 229.165375,160.990982 
M305.994019,218.768478 
	C304.987213,209.328903 302.276947,200.539474 295.796509,193.328140 
	C281.445770,177.358963 262.320068,172.799744 242.056625,170.995178 
	C239.078598,170.729980 237.985519,171.832397 237.962051,174.931885 
	C237.726501,206.032257 237.443100,237.132980 236.939011,268.229797 
	C236.868790,272.561737 238.708878,273.603088 242.240692,272.921692 
	C252.132324,271.013336 262.283142,269.830414 271.801758,266.732819 
	C292.930145,259.857178 307.658875,244.846741 305.994019,218.768478 
z"/>
<path fill="#BF2130" opacity="1.000000" stroke="none" 
	d="
M315.405518,195.128235 
	C305.256409,190.514175 295.119781,186.438354 285.858154,180.899506 
	C280.024841,177.410919 275.516541,171.715378 270.381439,167.045471 
	C268.835571,165.639648 267.180878,164.353470 265.235413,162.890915 
	C264.166138,154.318329 269.725220,148.562820 273.581238,140.909576 
	C280.790527,154.516556 291.169403,163.320312 303.625854,169.845398 
	C316.152802,176.407410 329.906311,178.024750 344.118530,179.360001 
	C341.467346,184.470291 339.189056,189.332108 336.414001,193.891602 
	C335.689209,195.082428 333.413696,195.920898 331.858917,195.907867 
	C326.499969,195.862991 321.144806,195.369904 315.405518,195.128235 
z"/>
<path fill="#DDA32A" opacity="1.000000" stroke="none" 
	d="
M225.954315,284.260101 
	C225.954315,284.260101 226.043869,284.494507 225.686050,284.942047 
	C225.244888,302.525787 225.156174,319.661987 225.110596,336.798279 
	C225.109497,337.207428 225.590622,337.617859 225.846817,338.027710 
	C225.889145,341.058441 225.931458,344.089203 225.690613,347.644165 
	C225.147675,348.354004 224.978882,348.601654 224.575638,349.083801 
	C222.825043,349.450012 221.399933,349.643738 219.979095,349.379028 
	C219.999008,294.657257 220.014633,240.393936 220.440796,186.076691 
	C222.501785,186.086441 224.152222,186.150116 225.828018,186.667374 
	C225.858002,190.774597 225.863419,194.428207 225.867142,198.081833 
	C225.896378,226.807922 225.925293,255.534012 225.954315,284.260101 
z"/>
<path fill="#DF6A72" opacity="1.000000" stroke="none" 
	d="
M225.060791,375.088165 
	C224.877075,375.703644 224.886551,376.538116 224.477905,376.898560 
	C222.056870,379.034149 209.429901,378.290863 206.989471,375.069641 
	C207.013107,368.782227 207.025162,363.376556 207.458771,357.946289 
	C209.287857,357.798309 210.695374,357.674957 212.528625,357.640686 
	C215.274933,357.669769 217.595505,357.609741 220.326233,357.654053 
	C222.144653,357.830109 223.552933,357.901825 224.993011,358.442078 
	C225.036804,364.303131 225.048798,369.695648 225.060791,375.088165 
z"/>
<path fill="#E3DDD1" opacity="1.000000" stroke="none" 
	d="
M225.802673,186.213776 
	C224.152222,186.150116 222.501785,186.086441 219.995010,186.024292 
	C216.748611,186.060684 214.358521,186.095551 211.568054,186.078156 
	C209.825943,186.056274 208.484238,186.086685 206.890503,186.088440 
	C206.469772,186.048248 206.301071,186.036713 206.132355,186.025162 
	C207.825912,181.074493 209.519455,176.123840 211.989868,170.937866 
	C215.222260,170.733032 217.677765,170.763519 220.133286,170.794006 
	C222.002823,175.249207 223.872345,179.704422 225.833008,184.848511 
	C225.883667,185.762848 225.843170,185.988312 225.802673,186.213776 
z"/>
<path fill="#FFFFFF" opacity="1.000000" stroke="none" 
	d="
M225.828018,186.667374 
	C225.843170,185.988312 225.883667,185.762848 225.980865,185.198486 
	C226.452850,185.508026 226.868149,186.156464 227.810699,186.907593 
	C228.337936,187.010284 228.788437,187.027466 228.788422,187.027466 
	C228.826752,201.367020 228.865067,215.706573 228.621414,230.518890 
	C228.339447,230.991653 227.893051,231.045090 227.503143,231.235992 
	C227.075592,244.444977 227.021622,257.463074 227.038895,270.481049 
	C227.039978,271.306091 227.595383,272.130371 228.116074,272.981873 
	C228.339233,273.008759 228.788437,273.026886 228.788437,273.026886 
	C228.827972,275.721649 228.867493,278.416412 228.687836,281.659973 
	C228.261398,282.379730 228.106857,282.589539 228.005066,282.838226 
	C227.511093,283.216248 227.017105,283.594269 226.238708,284.116211 
	C225.925293,255.534012 225.896378,226.807922 225.867142,198.081833 
	C225.863419,194.428207 225.858002,190.774597 225.828018,186.667374 
z"/>
<path fill="#EED193" opacity="1.000000" stroke="none" 
	d="
M206.073029,186.487579 
	C206.301071,186.036713 206.469772,186.048248 206.839462,186.545929 
	C206.986786,219.031189 206.933136,251.030304 206.699219,283.020050 
	C206.518936,283.010681 206.158051,282.999725 206.158051,282.999725 
	C206.109940,250.983154 206.061813,218.966583 206.073029,186.487579 
z"/>
<path fill="#F2DAAD" opacity="1.000000" stroke="none" 
	d="
M206.086639,283.463989 
	C206.158051,282.999725 206.518936,283.010681 206.744598,283.484497 
	C206.928513,305.653412 206.886780,327.348541 206.674774,349.034729 
	C206.504517,349.025818 206.163696,349.015533 206.163696,349.015533 
	C206.114212,327.319763 206.064728,305.624023 206.086639,283.463989 
z"/>
<path fill="#ECCA84" opacity="1.000000" stroke="none" 
	d="
M225.925140,337.560425 
	C225.590622,337.617859 225.109497,337.207428 225.110596,336.798279 
	C225.156174,319.661987 225.244888,302.525787 225.618683,285.047913 
	C225.940582,302.168518 225.972015,319.630829 225.925140,337.560425 
z"/>
<path fill="#5E615F" opacity="1.000000" stroke="none" 
	d="
M220.135071,170.410492 
	C217.677765,170.763519 215.222260,170.733032 212.305725,170.730499 
	C213.159317,167.305756 214.473953,163.853073 216.257492,159.168854 
	C217.836349,163.587967 218.986618,166.807480 220.135071,170.410492 
z"/>
<path fill="#EED4D3" opacity="1.000000" stroke="none" 
	d="
M225.445892,374.876221 
	C225.048798,369.695648 225.036804,364.303131 225.006104,357.993042 
	C224.958633,354.354065 224.929871,351.632721 224.901108,348.911346 
	C224.978882,348.601654 225.147675,348.354004 225.623856,348.094788 
	C225.837173,356.902222 225.834091,365.783234 225.445892,374.876221 
z"/>
<path fill="#EED5D4" opacity="1.000000" stroke="none" 
	d="
M205.974091,349.379456 
	C206.163696,349.015533 206.504517,349.025818 206.746490,349.242371 
	C206.988464,349.458893 207.111557,349.880768 207.085236,350.331421 
	C207.051666,353.178345 207.044434,355.574615 207.037201,357.970886 
	C207.025162,363.376556 207.013107,368.782227 206.982834,374.664001 
	C206.648590,373.635468 206.094269,372.136627 206.057358,370.625122 
	C205.887436,363.666443 205.861847,356.704285 205.974091,349.379456 
z"/>
<path fill="#EAF7FD" opacity="1.000000" stroke="none" 
	d="
M228.866714,186.562469 
	C228.788437,187.027466 228.337936,187.010284 228.114059,186.983826 
	C227.926834,179.404526 227.927795,171.851151 228.033539,164.299271 
	C228.052292,162.960876 228.507492,161.628586 228.963257,160.642242 
	C229.091904,169.359802 229.018448,177.728638 228.866714,186.562469 
z"/>
<path fill="#EAF7FD" opacity="1.000000" stroke="none" 
	d="
M228.255096,282.909729 
	C228.106857,282.589539 228.261398,282.379730 228.637238,282.107117 
	C228.805817,282.005463 228.959961,282.408112 228.982391,282.622498 
	C228.838272,282.884979 228.671707,282.933136 228.255096,282.909729 
z"/>
<path fill="#76D1F2" opacity="1.000000" stroke="none" 
	d="
M305.995178,219.235138 
	C307.658875,244.846741 292.930145,259.857178 271.801758,266.732819 
	C262.283142,269.830414 252.132324,271.013336 242.240692,272.921692 
	C238.708878,273.603088 236.868790,272.561737 236.939011,268.229797 
	C237.443100,237.132980 237.726501,206.032257 237.962051,174.931885 
	C237.985519,171.832397 239.078598,170.729980 242.056625,170.995178 
	C262.320068,172.799744 281.445770,177.358963 295.796509,193.328140 
	C302.276947,200.539474 304.987213,209.328903 305.995178,219.235138 
M243.374802,265.504120 
	C245.233078,265.392792 247.091354,265.281464 249.753693,264.997681 
	C253.976486,263.985321 258.284821,263.239105 262.407196,261.914246 
	C279.694122,256.358490 294.804871,248.292450 298.355988,228.156128 
	C301.047363,212.894653 296.467834,200.118408 284.087769,191.108688 
	C272.824249,182.911560 259.846436,179.289017 245.819901,178.143021 
	C240.964935,175.907425 242.056396,179.834229 242.050262,182.019684 
	C241.976425,208.309967 241.985718,234.600571 242.048462,260.890900 
	C242.051743,262.266510 242.730560,263.640472 242.971893,264.985565 
	C242.971893,264.985565 242.997375,264.861664 243.374802,265.504120 
z"/>
<path fill="#EAF7FD" opacity="1.000000" stroke="none" 
	d="
M228.866730,272.561890 
	C228.788437,273.026886 228.339233,273.008759 228.165634,272.518372 
	C227.959045,258.367004 227.926041,244.706039 227.893036,231.045090 
	C227.893051,231.045090 228.339447,230.991653 228.563950,230.982452 
	C228.840637,244.681137 228.892822,258.389038 228.866730,272.561890 
z"/>
<path fill="#E3AF47" opacity="1.000000" stroke="none" 
	d="
M211.968445,186.130432 
	C214.358521,186.095551 216.748611,186.060684 219.584473,186.078217 
	C220.014633,240.393936 219.999008,294.657257 219.994492,349.468323 
	C220.005600,350.016083 220.032166,350.194916 219.587616,350.128052 
	C216.751740,350.105469 214.360413,350.149780 211.973938,350.103485 
	C211.978775,350.012878 212.024109,349.837158 212.020691,349.381073 
	C212.000992,294.660126 211.984711,240.395279 211.968445,186.130432 
z"/>
<path fill="#C2B6B5" opacity="1.000000" stroke="none" 
	d="
M224.575638,349.083801 
	C224.929871,351.632721 224.958633,354.354065 224.974289,357.524475 
	C223.552933,357.901825 222.144653,357.830109 220.349655,357.261292 
	C219.986008,354.574463 220.009079,352.384674 220.032166,350.194916 
	C220.032166,350.194916 220.005600,350.016083 219.990204,349.926758 
	C221.399933,349.643738 222.825043,349.450012 224.575638,349.083801 
z"/>
<path fill="#CCD2C2" opacity="1.000000" stroke="none" 
	d="
M219.587616,350.128052 
	C220.009079,352.384674 219.986008,354.574463 219.939499,357.156982 
	C217.595505,357.609741 215.274933,357.669769 212.495636,357.248535 
	C212.014297,354.576263 211.991699,352.385162 211.969086,350.194092 
	C214.360413,350.149780 216.751740,350.105469 219.587616,350.128052 
z"/>
<path fill="#C2B6B5" opacity="1.000000" stroke="none" 
	d="
M211.973938,350.103485 
	C211.991699,352.385162 212.014297,354.576263 212.069901,357.159485 
	C210.695374,357.674957 209.287857,357.798309 207.458771,357.946289 
	C207.044434,355.574615 207.051666,353.178345 207.492371,350.368042 
	C209.291931,349.915039 210.658020,349.876099 212.024109,349.837158 
	C212.024109,349.837158 211.978775,350.012878 211.973938,350.103485 
z"/>
<path fill="#DDA227" opacity="1.000000" stroke="none" 
	d="
M212.020691,349.381073 
	C210.658020,349.876099 209.291931,349.915039 207.518707,349.917358 
	C207.111557,349.880768 206.988464,349.458893 206.916748,349.251282 
	C206.886780,327.348541 206.928513,305.653412 206.924866,283.493866 
	C206.933136,251.030304 206.986786,219.031189 207.091492,186.574585 
	C208.484238,186.086685 209.825943,186.056274 211.568054,186.078156 
	C211.984711,240.395279 212.000992,294.660126 212.020691,349.381073 
z"/>
<path fill="#000000" opacity="1.000000" stroke="none" 
	d="
M227.503128,231.235992 
	C227.926041,244.706039 227.959045,258.367004 227.942474,272.491486 
	C227.595383,272.130371 227.039978,271.306091 227.038895,270.481049 
	C227.021622,257.463074 227.075592,244.444977 227.503128,231.235992 
z"/>
<path fill="#000000" opacity="1.000000" stroke="none" 
	d="
M245.967926,178.830383 
	C259.846436,179.289017 272.824249,182.911560 284.087769,191.108688 
	C296.467834,200.118408 301.047363,212.894653 298.355988,228.156128 
	C294.804871,248.292450 279.694122,256.358490 262.407196,261.914246 
	C258.284821,263.239105 253.976486,263.985321 248.932739,265.014343 
	C246.406998,264.974548 244.702179,264.918091 242.997375,264.861664 
	C242.997375,264.861664 242.971893,264.985565 242.990723,264.530182 
	C243.006287,237.370041 243.004105,210.665283 242.997894,183.960526 
	C242.997360,181.669434 242.518509,179.117142 245.967926,178.830383 
z"/>
<path fill="#B0E4F7" opacity="1.000000" stroke="none" 
	d="
M245.893921,178.486694 
	C242.518509,179.117142 242.997360,181.669434 242.997894,183.960526 
	C243.004105,210.665283 243.006287,237.370041 243.052216,264.544983 
	C242.730560,263.640472 242.051743,262.266510 242.048462,260.890900 
	C241.985718,234.600571 241.976425,208.309967 242.050262,182.019684 
	C242.056396,179.834229 240.964935,175.907425 245.893921,178.486694 
z"/>
<path fill="#B0E4F7" opacity="1.000000" stroke="none" 
	d="
M243.186096,265.182892 
	C244.702179,264.918091 246.406998,264.974548 248.530716,265.100525 
	C247.091354,265.281464 245.233078,265.392792 243.186096,265.182892 
z"/>
</svg>