<?xml version="1.0" standalone="no"?>
<!DOCTYPE svg PUBLIC "-//W3C//DTD SVG 20010904//EN"
 "http://www.w3.org/TR/2001/REC-SVG-20010904/DTD/svg10.dtd">
<svg version="1.0" xmlns="http://www.w3.org/2000/svg"
 width="500.000000pt" height="499.000000pt" viewBox="0 0 500.000000 499.000000"
 preserveAspectRatio="xMidYMid meet">

<g transform="translate(0.000000,499.000000) scale(0.100000,-0.100000)"
fill="#000000" stroke="none">
<path d="M2335 4979 c-339 -22 -657 -109 -968 -266 -242 -121 -448 -273 -650
-480 -376 -384 -599 -837 -689 -1398 -20 -124 -17 -573 5 -707 73 -454 246
-847 529 -1199 604 -750 1587 -1081 2535 -853 428 103 832 329 1157 648 65 64
92 93 176 192 35 40 173 233 194 269 9 17 25 44 35 60 145 242 266 590 313
905 17 114 17 577 0 690 -145 959 -798 1733 -1712 2027 -102 33 -282 75 -395
92 -69 11 -351 32 -390 29 -11 0 -74 -4 -140 -9z m480 -508 c28 -6 75 -16 105
-22 71 -14 227 -60 313 -93 390 -149 763 -466 986 -837 125 -210 208 -436 257
-699 25 -135 25 -515 0 -650 -78 -425 -257 -776 -542 -1066 -182 -186 -330
-292 -559 -404 -194 -95 -345 -143 -575 -181 -109 -18 -153 -20 -345 -16 -121
3 -242 10 -270 16 -27 6 -75 16 -105 22 -189 37 -455 143 -627 251 -404 252
-701 627 -851 1073 -72 214 -96 372 -96 630 0 212 6 278 45 450 144 636 608
1172 1224 1412 145 57 302 96 500 127 56 8 490 -2 540 -13z"/>
<path d="M2330 4381 c-367 -34 -735 -183 -1020 -414 -215 -174 -390 -394 -510
-642 -86 -177 -131 -317 -172 -530 -18 -96 -18 -504 1 -605 84 -467 316 -867
671 -1159 177 -147 436 -285 645 -346 218 -63 333 -79 560 -79 319 1 555 56
836 194 346 170 632 442 817 779 29 52 52 95 52 97 0 1 13 31 29 66 161 354
198 813 99 1213 -25 101 -63 213 -99 293 -16 35 -29 65 -29 66 0 2 -23 45 -52
97 -155 282 -389 525 -672 702 -134 83 -330 166 -506 213 -178 48 -464 72
-650 55z m514 -116 c265 -54 446 -129 675 -283 338 -227 603 -590 715 -982 96
-332 96 -678 0 -1010 -112 -392 -378 -757 -714 -982 -230 -153 -408 -228 -680
-285 -113 -24 -146 -26 -340 -26 -194 0 -227 2 -341 26 -376 80 -662 231 -920
487 -221 219 -355 431 -448 706 -154 457 -120 958 93 1381 95 190 192 321 355
483 294 291 667 467 1080 511 137 14 387 2 525 -26z"/>
<path d="M2584 3916 c-5 -20 -1 -33 13 -49 11 -12 69 -78 129 -147 266 -304
286 -325 332 -349 48 -25 120 -37 373 -61 70 -7 133 -16 139 -20 10 -6 -5 -42
-56 -137 -60 -112 -72 -128 -96 -131 -17 -2 -37 -16 -52 -35 -36 -48 -79 -138
-69 -147 18 -17 147 -79 154 -74 14 8 89 151 89 168 0 9 -5 25 -11 35 -10 15
0 42 63 162 l76 144 48 3 c52 3 74 15 74 40 0 11 -102 136 -140 172 -3 3 -59
65 -125 139 -66 74 -131 147 -145 162 -38 41 -113 77 -178 84 -51 6 -109 13
-362 45 -41 6 -114 13 -162 16 l-87 7 -7 -27z"/>
<path d="M2682 3502 c-23 -41 -42 -80 -42 -88 0 -17 84 -120 140 -171 99 -90
236 -159 360 -182 86 -16 174 -22 187 -14 12 9 96 153 91 157 -2 2 -50 8 -107
15 -162 19 -309 78 -419 169 -58 46 -76 66 -126 133 l-42 56 -42 -75z"/>
<path d="M2142 3370 c-26 -67 -26 -70 7 -70 34 0 36 7 16 60 l-13 35 -10 -25z"/>
</g>
</svg>
